<?xml version="1.0" encoding="UTF-8" standalone="no"?><!DOCTYPE svg PUBLIC "-//W3C//DTD SVG 1.1//EN" "http://www.w3.org/Graphics/SVG/1.1/DTD/svg11.dtd"><svg width="100%" height="100%" viewBox="0 0 156 29" version="1.1" xmlns="http://www.w3.org/2000/svg" xmlns:xlink="http://www.w3.org/1999/xlink" xml:space="preserve" xmlns:serif="http://www.serif.com/" style="fill-rule:evenodd;clip-rule:evenodd;stroke-linejoin:round;stroke-miterlimit:2;"><rect id="Artboard1" x="0" y="0" width="155.686" height="28.148" style="fill:none;"/><path d="M27.525,7.616l0,13.013c0,3.591 -2.915,6.506 -6.506,6.506l-13.013,0c-3.591,0 -6.506,-2.915 -6.506,-6.506l-0,-13.013c-0,-3.59 2.915,-6.506 6.506,-6.506l13.013,0c3.591,0 6.506,2.916 6.506,6.506Z" style="fill:#ff333f;"/><path d="M58.745,7.616l0,13.013c0,3.591 -2.915,6.506 -6.506,6.506l-13.012,0c-3.591,0 -6.507,-2.915 -6.507,-6.506l0,-13.013c0,-3.59 2.916,-6.506 6.507,-6.506l13.012,0c3.591,0 6.506,2.916 6.506,6.506Z" style="fill:#ff333f;"/><path d="M90.496,7.616l-0,13.013c-0,3.591 -2.916,6.506 -6.507,6.506l-13.012,0c-3.591,0 -6.506,-2.915 -6.506,-6.506l-0,-13.013c-0,-3.59 2.915,-6.506 6.506,-6.506l13.012,0c3.591,0 6.507,2.916 6.507,6.506Z" style="fill:#ff333f;"/><path d="M122.318,7.616l-0,13.013c-0,3.591 -2.916,6.506 -6.507,6.506l-13.012,0c-3.591,0 -6.507,-2.915 -6.507,-6.506l0,-13.013c0,-3.59 2.916,-6.506 6.507,-6.506l13.012,0c3.591,0 6.507,2.916 6.507,6.506Z" style="fill:#ff333f;"/><path d="M154.127,7.616l-0,13.013c-0,3.591 -2.916,6.506 -6.506,6.506l-13.013,0c-3.591,0 -6.506,-2.915 -6.506,-6.506l-0,-13.013c-0,-3.59 2.915,-6.506 6.506,-6.506l13.013,0c3.59,0 6.506,2.916 6.506,6.506Z" style="fill:#ff333f;"/><path d="M13.567,4.78c0.18,-0.358 0.545,-0.584 0.946,-0.584c0.4,0 0.766,0.226 0.945,0.584l2.323,4.64c0.104,0.208 0.258,0.389 0.446,0.526c0.189,0.137 0.408,0.227 0.639,0.262l5.131,0.776c0.395,0.06 0.723,0.338 0.847,0.718c0.124,0.381 0.022,0.799 -0.263,1.08l-3.695,3.643c-0.166,0.164 -0.291,0.365 -0.363,0.587c-0.072,0.222 -0.09,0.458 -0.051,0.688l0.847,5.12c0.066,0.395 -0.098,0.792 -0.421,1.028c-0.324,0.235 -0.753,0.267 -1.108,0.083l-4.607,-2.388c-0.207,-0.108 -0.437,-0.164 -0.67,-0.164c-0.234,0 -0.464,0.056 -0.671,0.164l-4.607,2.388c-0.355,0.184 -0.784,0.152 -1.108,-0.083c-0.323,-0.236 -0.486,-0.633 -0.421,-1.028l0.848,-5.12c0.038,-0.23 0.02,-0.466 -0.052,-0.688c-0.072,-0.222 -0.197,-0.423 -0.363,-0.587l-3.695,-3.643c-0.285,-0.281 -0.387,-0.699 -0.263,-1.08c0.124,-0.38 0.452,-0.658 0.847,-0.718l5.131,-0.776c0.231,-0.035 0.45,-0.125 0.639,-0.262c0.189,-0.137 0.342,-0.318 0.446,-0.526l2.323,-4.64Z" style="fill:#fff;"/><path d="M44.788,4.78c0.179,-0.358 0.545,-0.584 0.945,-0.584c0.4,0 0.766,0.226 0.945,0.584l2.323,4.64c0.105,0.208 0.258,0.389 0.447,0.526c0.188,0.137 0.407,0.227 0.638,0.262l5.131,0.776c0.396,0.06 0.724,0.338 0.847,0.718c0.124,0.381 0.022,0.799 -0.263,1.08l-3.695,3.643c-0.166,0.164 -0.29,0.365 -0.362,0.587c-0.073,0.222 -0.09,0.458 -0.052,0.688l0.848,5.12c0.065,0.395 -0.098,0.792 -0.422,1.028c-0.324,0.235 -0.753,0.267 -1.108,0.083l-4.607,-2.388c-0.207,-0.108 -0.437,-0.164 -0.67,-0.164c-0.234,0 -0.464,0.056 -0.671,0.164l-4.607,2.388c-0.355,0.184 -0.784,0.152 -1.107,-0.083c-0.324,-0.236 -0.487,-0.633 -0.422,-1.028l0.848,-5.12c0.038,-0.23 0.02,-0.466 -0.052,-0.688c-0.072,-0.222 -0.196,-0.423 -0.363,-0.587l-3.694,-3.643c-0.285,-0.281 -0.387,-0.699 -0.264,-1.08c0.124,-0.38 0.452,-0.658 0.848,-0.718l5.13,-0.776c0.231,-0.035 0.45,-0.125 0.639,-0.262c0.189,-0.137 0.342,-0.318 0.446,-0.526l2.324,-4.64Z" style="fill:#fff;"/><path d="M76.538,4.78c0.179,-0.358 0.545,-0.584 0.945,-0.584c0.4,0 0.766,0.226 0.945,0.584l2.324,4.64c0.104,0.208 0.257,0.389 0.446,0.526c0.189,0.137 0.408,0.227 0.639,0.262l5.13,0.776c0.396,0.06 0.724,0.338 0.848,0.718c0.123,0.381 0.021,0.799 -0.263,1.08l-3.695,3.643c-0.167,0.164 -0.291,0.365 -0.363,0.587c-0.072,0.222 -0.09,0.458 -0.052,0.688l0.848,5.12c0.065,0.395 -0.098,0.792 -0.422,1.028c-0.323,0.235 -0.752,0.267 -1.107,0.083l-4.607,-2.388c-0.207,-0.108 -0.437,-0.164 -0.671,-0.164c-0.233,0 -0.463,0.056 -0.67,0.164l-4.607,2.388c-0.355,0.184 -0.784,0.152 -1.108,-0.083c-0.324,-0.236 -0.487,-0.633 -0.422,-1.028l0.848,-5.12c0.038,-0.23 0.021,-0.466 -0.052,-0.688c-0.072,-0.222 -0.196,-0.423 -0.362,-0.587l-3.695,-3.643c-0.285,-0.281 -0.387,-0.699 -0.263,-1.08c0.123,-0.38 0.451,-0.658 0.847,-0.718l5.131,-0.776c0.231,-0.035 0.45,-0.125 0.638,-0.262c0.189,-0.137 0.342,-0.318 0.447,-0.526l2.323,-4.64Z" style="fill:#fff;"/><path d="M108.36,4.78c0.179,-0.358 0.545,-0.584 0.945,-0.584c0.4,0 0.766,0.226 0.945,0.584l2.323,4.64c0.105,0.208 0.258,0.389 0.447,0.526c0.189,0.137 0.408,0.227 0.638,0.262l5.131,0.776c0.396,0.06 0.724,0.338 0.847,0.718c0.124,0.381 0.022,0.799 -0.263,1.08l-3.695,3.643c-0.166,0.164 -0.29,0.365 -0.362,0.587c-0.072,0.222 -0.09,0.458 -0.052,0.688l0.848,5.12c0.065,0.395 -0.098,0.792 -0.422,1.028c-0.324,0.235 -0.752,0.267 -1.108,0.083l-4.606,-2.388c-0.208,-0.108 -0.438,-0.164 -0.671,-0.164c-0.233,0 -0.463,0.056 -0.671,0.164l-4.606,2.388c-0.356,0.184 -0.784,0.152 -1.108,-0.083c-0.324,-0.236 -0.487,-0.633 -0.422,-1.028l0.848,-5.12c0.038,-0.23 0.02,-0.466 -0.052,-0.688c-0.072,-0.222 -0.196,-0.423 -0.362,-0.587l-3.695,-3.643c-0.285,-0.281 -0.387,-0.699 -0.263,-1.08c0.123,-0.38 0.451,-0.658 0.847,-0.718l5.131,-0.776c0.23,-0.035 0.449,-0.125 0.638,-0.262c0.189,-0.137 0.342,-0.318 0.447,-0.526l2.323,-4.64Z" style="fill:#fff;"/><path d="M140.169,4.78c0.179,-0.358 0.545,-0.584 0.945,-0.584c0.4,0 0.766,0.226 0.945,0.584l2.324,4.64c0.104,0.208 0.257,0.389 0.446,0.526c0.189,0.137 0.408,0.227 0.639,0.262l5.13,0.776c0.396,0.06 0.724,0.338 0.848,0.718c0.123,0.381 0.021,0.799 -0.263,1.08l-3.695,3.643c-0.167,0.164 -0.291,0.365 -0.363,0.587c-0.072,0.222 -0.09,0.458 -0.052,0.688l0.848,5.12c0.065,0.395 -0.098,0.792 -0.422,1.028c-0.323,0.235 -0.752,0.267 -1.107,0.083l-4.607,-2.388c-0.207,-0.108 -0.437,-0.164 -0.671,-0.164c-0.233,0 -0.463,0.056 -0.67,0.164l-4.607,2.388c-0.355,0.184 -0.784,0.152 -1.108,-0.083c-0.324,-0.236 -0.487,-0.633 -0.421,-1.028l0.847,-5.12c0.038,-0.23 0.021,-0.466 -0.051,-0.688c-0.073,-0.222 -0.197,-0.423 -0.363,-0.587l-3.695,-3.643c-0.285,-0.281 -0.387,-0.699 -0.263,-1.08c0.123,-0.38 0.451,-0.658 0.847,-0.718l5.131,-0.776c0.231,-0.035 0.45,-0.125 0.638,-0.262c0.189,-0.137 0.342,-0.318 0.447,-0.526l2.323,-4.64Z" style="fill:#fff;"/></svg>