<svg width="100%" height="100%" viewBox="0 0 35 35" version="1.1" xmlns="http://www.w3.org/2000/svg" xmlns:xlink="http://www.w3.org/1999/xlink" xml:space="preserve" xmlns:serif="http://www.serif.com/" style="fill-rule:evenodd;clip-rule:evenodd;stroke-linejoin:round;stroke-miterlimit:2;"><path d="M34.022,34.022l-34.022,-0l0,-34.022l34.022,0c-0,0 0.066,8.198 -0,8.158c-1.235,-0.74 -2.107,-0.848 -3.314,-1.434c-1.428,-0.692 -2.452,-0.995 -2.996,-0.832c1.053,0.024 1.682,0.499 1.806,0.586c-2.928,-0.728 -4.86,-1.81 -6.367,-1.688c-0.314,-0.678 -0.25,-2.582 -2.07,-3.12c-0.508,-0.15 -0.391,0.232 -0.391,0.232l0.088,0.876l-0.443,2.049c0,-0 -0.794,-0.167 -1.126,-0.859c0.08,0.574 0.698,0.91 0.794,0.957c-0.901,0.036 -1.759,0.221 -1.759,0.221c-0,-0 -1.316,-1.087 -2.247,-1.714c-0.545,-0.368 -1.086,-1.451 -1.37,-1.745c-0.077,-0.079 -0.414,-0.071 -0.452,0.036c-0.067,0.191 -0.051,0.754 0.049,1.11c-0.315,1.733 1.646,4.805 1.646,4.805c-0,-0 -0.454,1.212 -1.69,1.655c0.743,-0.126 1.312,-0.608 1.312,-0.608c0,0 -0.57,0.867 -0.929,1.844c-0.36,0.338 -1.523,0.624 -1.523,0.624c0,-0 0.623,0.25 1.33,0.052c-0.345,0.555 -0.964,1.974 -1.999,2.098c0.617,0.154 1.362,-0.487 1.362,-0.487c-0,0 -0.128,0.237 -0.228,0.381c-0.16,0.23 -0.381,0.56 -0.262,1.049c0.015,0.062 -0.131,0.084 -0.408,-0.044c0.095,0.201 0.385,0.24 0.499,0.277c0.169,0.389 0.196,1.433 0.195,1.572c-0.313,0.936 -1.062,3.242 -1.767,4.471c-0.518,0.905 -1.008,2.443 -1.556,3.321c-0.426,0.683 -0.89,1.605 -1.034,2.055c-0.059,0.187 0.158,0.422 0.172,0.644c0.021,0.318 -0.086,0.809 -0.025,1.112c0.247,1.242 0.787,1.983 1.13,2.549c0.353,0.582 0.815,0.513 1.272,0.642c0.256,0.622 2.266,0.774 2.976,0.561c0.395,-0.119 0.912,-0.647 1.175,-0.998c0.235,-0.315 0.283,-0.859 0.473,-1.037c0.162,-0.151 0.679,-0.306 0.679,-0.306l0.444,-0.497l1.572,-0.931l0.439,-0.489l0.62,-0.247l0.412,-0.457l1.117,-0.815c-0,-0 0.174,-0.648 0.435,-0.652c0.923,-0.014 1.862,-0.33 3.089,-1.344c1.32,1.099 3.58,3.589 5.053,5.325c2.016,2.376 3.817,5.064 3.817,5.064Z" style="fill:url(#_Linear1);"/><defs><linearGradient id="_Linear1" x1="0" y1="0" x2="1" y2="0" gradientUnits="userSpaceOnUse" gradientTransform="matrix(56.9428,56.9428,-14.9847,14.9847,-0.291806,-0.3778)"><stop offset="0" style="stop-color:#fe7177;stop-opacity:1"/><stop offset="1" style="stop-color:#ffb84b;stop-opacity:1"/></linearGradient></defs></svg>