<?xml version="1.0" encoding="UTF-8" standalone="no"?><!DOCTYPE svg PUBLIC "-//W3C//DTD SVG 1.1//EN" "http://www.w3.org/Graphics/SVG/1.1/DTD/svg11.dtd"><svg width="100%" height="100%" viewBox="0 0 105 46" version="1.1" xmlns="http://www.w3.org/2000/svg" xmlns:xlink="http://www.w3.org/1999/xlink" xml:space="preserve" xmlns:serif="http://www.serif.com/" style="fill-rule:evenodd;clip-rule:evenodd;stroke-linejoin:round;stroke-miterlimit:2;"><rect id="Artboard1" x="0" y="0" width="104.249" height="45.16" style="fill:none;"/><clipPath id="_clip1"><rect x="0" y="0" width="104.249" height="45.16"/></clipPath><g clip-path="url(#_clip1)"><g id="Logo"><g transform="matrix(8.91988,0,0,8.91988,-0.536691,44.8729)"><path d="M0.056,-0l-0,-0.7l0.446,0l0,0.089l-0.336,0l-0,0.213l0.306,0l0,0.088l-0.306,-0l-0,0.221l0.336,-0l0,0.089l-0.446,0Z" style="fill:url(#_Linear2);fill-rule:nonzero;"/></g><g transform="matrix(8.91988,0,0,8.91988,4.13733,44.8729)"><path d="M0.251,0.012c-0.063,0 -0.115,-0.015 -0.157,-0.044c-0.041,-0.03 -0.065,-0.071 -0.071,-0.124l0.113,-0c0.005,0.025 0.018,0.045 0.039,0.059c0.021,0.015 0.048,0.022 0.08,0.022c0.031,0 0.056,-0.006 0.073,-0.019c0.017,-0.012 0.025,-0.028 0.025,-0.047c0,-0.015 -0.005,-0.027 -0.017,-0.035c-0.011,-0.008 -0.031,-0.014 -0.06,-0.019c-0.011,-0.002 -0.025,-0.004 -0.04,-0.007c-0.015,-0.002 -0.029,-0.005 -0.04,-0.007c-0.025,-0.005 -0.049,-0.013 -0.071,-0.024c-0.023,-0.011 -0.041,-0.027 -0.055,-0.047c-0.014,-0.019 -0.021,-0.044 -0.021,-0.074c-0,-0.044 0.016,-0.08 0.049,-0.11c0.033,-0.029 0.079,-0.044 0.139,-0.044c0.059,0 0.107,0.013 0.143,0.04c0.037,0.026 0.058,0.065 0.063,0.117l-0.108,0c-0.002,-0.024 -0.013,-0.042 -0.031,-0.053c-0.019,-0.011 -0.041,-0.017 -0.067,-0.017c-0.028,0 -0.049,0.006 -0.065,0.017c-0.016,0.011 -0.024,0.025 -0.024,0.042c-0,0.031 0.024,0.05 0.073,0.059c0.007,0.001 0.016,0.002 0.025,0.004c0.01,0.002 0.02,0.003 0.031,0.005c0.01,0.002 0.019,0.003 0.026,0.005c0.017,0.002 0.035,0.006 0.053,0.012c0.018,0.005 0.035,0.013 0.05,0.023c0.015,0.01 0.027,0.024 0.037,0.04c0.009,0.017 0.014,0.038 0.014,0.063c-0,0.032 -0.009,0.06 -0.025,0.085c-0.016,0.024 -0.039,0.043 -0.07,0.057c-0.031,0.014 -0.068,0.021 -0.111,0.021Z" style="fill:url(#_Linear3);fill-rule:nonzero;"/></g><g transform="matrix(8.91988,0,0,8.91988,8.40103,44.8729)"><path d="M0.235,-0c-0.031,-0 -0.057,-0.004 -0.078,-0.011c-0.021,-0.008 -0.037,-0.022 -0.048,-0.042c-0.011,-0.021 -0.016,-0.051 -0.016,-0.09l0,-0.26l-0.085,-0l-0,-0.093l0.085,0l0,-0.127l0.11,0l0,0.127l0.133,0l0,0.093l-0.133,-0l0,0.245c0,0.019 0.002,0.033 0.005,0.042c0.004,0.01 0.01,0.016 0.02,0.018c0.01,0.003 0.024,0.004 0.043,0.004l0.06,0l-0,0.094l-0.096,0Z" style="fill:url(#_Linear4);fill-rule:nonzero;"/></g><g transform="matrix(8.91988,0,0,8.91988,11.4338,44.8729)"><path d="M0.214,0.012c-0.039,0 -0.071,-0.007 -0.098,-0.02c-0.027,-0.014 -0.048,-0.032 -0.062,-0.055c-0.013,-0.023 -0.02,-0.048 -0.02,-0.074c-0,-0.053 0.019,-0.093 0.057,-0.122c0.038,-0.028 0.088,-0.043 0.15,-0.043c0.028,0 0.053,0.002 0.075,0.007c0.022,0.004 0.04,0.008 0.054,0.013l-0,-0.023c-0,-0.039 -0.011,-0.067 -0.032,-0.086c-0.021,-0.019 -0.049,-0.028 -0.083,-0.028c-0.026,-0 -0.049,0.005 -0.069,0.016c-0.02,0.01 -0.032,0.029 -0.038,0.056l-0.106,-0c0.004,-0.036 0.016,-0.065 0.036,-0.089c0.021,-0.024 0.046,-0.042 0.077,-0.054c0.031,-0.012 0.064,-0.018 0.1,-0.018c0.072,0 0.128,0.018 0.166,0.054c0.039,0.036 0.059,0.086 0.059,0.149l-0,0.13c-0,0.025 0.001,0.043 0.004,0.055c0.003,0.012 0.008,0.019 0.015,0.022c0.007,0.003 0.017,0.004 0.029,0.004l0.005,0l0,0.094l-0.024,0c-0.034,0 -0.061,-0.005 -0.084,-0.015c-0.022,-0.01 -0.037,-0.03 -0.046,-0.06c-0.016,0.025 -0.038,0.046 -0.065,0.062c-0.027,0.017 -0.061,0.025 -0.1,0.025Zm0.022,-0.086c0.025,-0 0.047,-0.006 0.065,-0.019c0.018,-0.012 0.033,-0.028 0.044,-0.048c0.011,-0.021 0.017,-0.042 0.02,-0.066c-0.014,-0.004 -0.032,-0.008 -0.052,-0.012c-0.02,-0.004 -0.041,-0.006 -0.061,-0.006c-0.036,0 -0.062,0.008 -0.08,0.022c-0.018,0.015 -0.027,0.034 -0.027,0.058c-0,0.021 0.008,0.037 0.024,0.051c0.016,0.013 0.038,0.02 0.067,0.02Z" style="fill:url(#_Linear5);fill-rule:nonzero;"/></g><g transform="matrix(8.91988,0,0,8.91988,16.3843,44.8729)"><path d="M0.331,0.012c-0.039,0 -0.073,-0.008 -0.102,-0.023c-0.03,-0.015 -0.053,-0.036 -0.07,-0.063l-0,0.074l-0.11,-0l-0,-0.72l0.11,0l-0,0.3c0.016,-0.023 0.038,-0.044 0.066,-0.061c0.028,-0.018 0.063,-0.027 0.106,-0.027c0.048,0 0.09,0.011 0.127,0.034c0.037,0.023 0.065,0.054 0.086,0.093c0.021,0.039 0.032,0.084 0.032,0.134c-0,0.05 -0.011,0.094 -0.032,0.133c-0.021,0.039 -0.049,0.07 -0.086,0.092c-0.037,0.023 -0.079,0.034 -0.127,0.034Zm-0.02,-0.096c0.03,0 0.056,-0.007 0.079,-0.021c0.023,-0.014 0.042,-0.033 0.055,-0.058c0.013,-0.024 0.019,-0.052 0.019,-0.084c0,-0.033 -0.006,-0.061 -0.019,-0.086c-0.013,-0.025 -0.032,-0.045 -0.055,-0.058c-0.023,-0.014 -0.049,-0.021 -0.079,-0.021c-0.03,-0 -0.056,0.007 -0.079,0.021c-0.023,0.013 -0.041,0.033 -0.054,0.057c-0.013,0.025 -0.02,0.054 -0.02,0.086c0,0.032 0.007,0.061 0.02,0.085c0.013,0.025 0.031,0.044 0.054,0.058c0.023,0.014 0.049,0.021 0.079,0.021Z" style="fill:url(#_Linear6);fill-rule:nonzero;"/></g><g transform="matrix(8.91988,0,0,8.91988,21.7541,44.8729)"><rect x="0.051" y="-0.72" width="0.11" height="0.72" style="fill:url(#_Linear7);fill-rule:nonzero;"/></g><g transform="matrix(8.91988,0,0,8.91988,23.6451,44.8729)"><path d="M0.051,-0l0,-0.496l0.11,0l0,0.496l-0.11,-0Zm-0.003,-0.584l0,-0.119l0.117,0l0,0.119l-0.117,-0Z" style="fill:url(#_Linear8);fill-rule:nonzero;"/></g><g transform="matrix(8.91988,0,0,8.91988,25.5361,44.8729)"><path d="M0.251,0.012c-0.063,0 -0.115,-0.015 -0.157,-0.044c-0.041,-0.03 -0.065,-0.071 -0.071,-0.124l0.113,-0c0.005,0.025 0.018,0.045 0.039,0.059c0.021,0.015 0.048,0.022 0.08,0.022c0.031,0 0.056,-0.006 0.073,-0.019c0.017,-0.012 0.025,-0.028 0.025,-0.047c0,-0.015 -0.005,-0.027 -0.017,-0.035c-0.011,-0.008 -0.031,-0.014 -0.06,-0.019c-0.011,-0.002 -0.025,-0.004 -0.04,-0.007c-0.015,-0.002 -0.029,-0.005 -0.04,-0.007c-0.025,-0.005 -0.049,-0.013 -0.071,-0.024c-0.023,-0.011 -0.041,-0.027 -0.055,-0.047c-0.014,-0.019 -0.021,-0.044 -0.021,-0.074c-0,-0.044 0.016,-0.08 0.049,-0.11c0.033,-0.029 0.079,-0.044 0.139,-0.044c0.059,0 0.107,0.013 0.143,0.04c0.037,0.026 0.058,0.065 0.063,0.117l-0.108,0c-0.002,-0.024 -0.013,-0.042 -0.031,-0.053c-0.019,-0.011 -0.041,-0.017 -0.067,-0.017c-0.028,0 -0.049,0.006 -0.065,0.017c-0.016,0.011 -0.024,0.025 -0.024,0.042c-0,0.031 0.024,0.05 0.073,0.059c0.007,0.001 0.016,0.002 0.025,0.004c0.01,0.002 0.02,0.003 0.031,0.005c0.01,0.002 0.019,0.003 0.026,0.005c0.017,0.002 0.035,0.006 0.053,0.012c0.018,0.005 0.035,0.013 0.05,0.023c0.015,0.01 0.027,0.024 0.037,0.04c0.009,0.017 0.014,0.038 0.014,0.063c-0,0.032 -0.009,0.06 -0.025,0.085c-0.016,0.024 -0.039,0.043 -0.07,0.057c-0.031,0.014 -0.068,0.021 -0.111,0.021Z" style="fill:url(#_Linear9);fill-rule:nonzero;"/></g><g transform="matrix(8.91988,0,0,8.91988,29.9515,44.8729)"><path d="M0.048,-0l0,-0.72l0.11,0l0,0.303c0.017,-0.028 0.04,-0.05 0.07,-0.067c0.029,-0.016 0.062,-0.024 0.098,-0.024c0.06,0 0.106,0.019 0.14,0.056c0.035,0.038 0.052,0.094 0.052,0.168l-0,0.284l-0.109,-0l-0,-0.273c-0,-0.047 -0.01,-0.082 -0.028,-0.106c-0.019,-0.024 -0.048,-0.035 -0.086,-0.035c-0.039,-0 -0.072,0.013 -0.098,0.041c-0.026,0.027 -0.039,0.066 -0.039,0.117l0,0.256l-0.11,0Z" style="fill:url(#_Linear10);fill-rule:nonzero;"/></g><g transform="matrix(8.91988,0,0,8.91988,35.0269,44.8729)"><path d="M0.279,0.012c-0.049,0 -0.093,-0.011 -0.13,-0.033c-0.038,-0.021 -0.068,-0.051 -0.089,-0.09c-0.022,-0.039 -0.033,-0.083 -0.033,-0.135c0,-0.051 0.011,-0.097 0.032,-0.137c0.021,-0.039 0.051,-0.07 0.089,-0.092c0.038,-0.022 0.082,-0.033 0.132,-0.033c0.049,0 0.092,0.011 0.128,0.032c0.036,0.022 0.064,0.05 0.084,0.086c0.02,0.036 0.03,0.077 0.03,0.121l0,0.022c0,0.007 -0.001,0.016 -0.002,0.025l-0.412,-0l-0,-0.074l0.304,0c-0.002,-0.037 -0.016,-0.067 -0.04,-0.089c-0.025,-0.022 -0.056,-0.033 -0.092,-0.033c-0.026,0 -0.05,0.006 -0.072,0.017c-0.022,0.012 -0.04,0.029 -0.053,0.051c-0.013,0.023 -0.02,0.052 -0.02,0.086l0,0.028c0,0.033 0.007,0.062 0.02,0.086c0.013,0.023 0.03,0.041 0.052,0.053c0.022,0.012 0.046,0.018 0.072,0.018c0.029,0 0.054,-0.007 0.074,-0.02c0.02,-0.013 0.035,-0.031 0.044,-0.054l0.111,0c-0.009,0.031 -0.024,0.059 -0.045,0.084c-0.021,0.025 -0.047,0.045 -0.078,0.059c-0.031,0.015 -0.066,0.022 -0.106,0.022Z" style="fill:url(#_Linear11);fill-rule:nonzero;"/></g><g transform="matrix(8.91988,0,0,8.91988,39.9953,44.8729)"><path d="M0.271,0.012c-0.048,0 -0.09,-0.011 -0.127,-0.034c-0.037,-0.023 -0.065,-0.054 -0.086,-0.093c-0.021,-0.04 -0.032,-0.084 -0.032,-0.134c0,-0.05 0.011,-0.094 0.032,-0.134c0.021,-0.038 0.049,-0.069 0.086,-0.092c0.037,-0.022 0.08,-0.033 0.128,-0.033c0.039,0 0.073,0.008 0.102,0.023c0.03,0.015 0.053,0.036 0.069,0.063l0,-0.298l0.11,0l0,0.72l-0.11,-0l0,-0.076c-0.015,0.023 -0.037,0.043 -0.065,0.061c-0.028,0.018 -0.063,0.027 -0.107,0.027Zm0.02,-0.096c0.03,0 0.057,-0.007 0.079,-0.021c0.023,-0.014 0.041,-0.033 0.054,-0.058c0.013,-0.025 0.02,-0.053 0.02,-0.085c-0,-0.032 -0.007,-0.061 -0.02,-0.086c-0.013,-0.024 -0.031,-0.044 -0.054,-0.057c-0.022,-0.014 -0.049,-0.021 -0.079,-0.021c-0.029,-0 -0.055,0.007 -0.079,0.021c-0.023,0.013 -0.041,0.033 -0.054,0.057c-0.013,0.025 -0.02,0.053 -0.02,0.085c0,0.033 0.007,0.061 0.02,0.086c0.013,0.025 0.031,0.044 0.054,0.058c0.024,0.014 0.05,0.021 0.079,0.021Z" style="fill:url(#_Linear12);fill-rule:nonzero;"/></g><g transform="matrix(8.91988,0,0,8.91988,45.365,44.8729)"></g><g transform="matrix(8.91988,0,0,8.91988,48.1034,44.8729)"><path d="M0.051,-0l0,-0.496l0.11,0l0,0.496l-0.11,-0Zm-0.003,-0.584l0,-0.119l0.117,0l0,0.119l-0.117,-0Z" style="fill:url(#_Linear13);fill-rule:nonzero;"/></g><g transform="matrix(8.91988,0,0,8.91988,49.9944,44.8729)"><path d="M0.05,-0l0,-0.496l0.11,0l0,0.079c0.016,-0.028 0.039,-0.051 0.068,-0.067c0.028,-0.016 0.061,-0.024 0.098,-0.024c0.061,0 0.108,0.019 0.142,0.056c0.034,0.038 0.051,0.094 0.051,0.168l0,0.284l-0.11,-0l0,-0.273c0,-0.047 -0.009,-0.082 -0.029,-0.106c-0.019,-0.024 -0.048,-0.035 -0.086,-0.035c-0.039,-0 -0.071,0.013 -0.096,0.041c-0.025,0.027 -0.038,0.066 -0.038,0.117l0,0.256l-0.11,0Z" style="fill:url(#_Linear14);fill-rule:nonzero;"/></g><g transform="matrix(8.91988,0,0,8.91988,55.0699,44.8729)"></g><g transform="matrix(8.91988,0,0,8.91988,57.8083,44.8729)"><path d="M0.288,-0.043l0,-0.484l-0.19,0l-0,-0.08l0.148,-0.011c0.013,-0.001 0.023,-0.005 0.031,-0.012c0.007,-0.007 0.011,-0.017 0.011,-0.029l0,-0.041l0.111,0l-0,0.657l-0.111,0Zm-0.215,0.043l0,-0.09l0.529,-0l-0,0.09l-0.529,0Z" style="fill:url(#_Linear15);fill-rule:nonzero;"/></g><g transform="matrix(8.91988,0,0,8.91988,63.6062,44.8729)"><path d="M0.312,0.012c-0.048,0 -0.089,-0.009 -0.123,-0.028c-0.033,-0.018 -0.06,-0.042 -0.079,-0.072c-0.019,-0.03 -0.03,-0.063 -0.035,-0.098l0.103,-0c0.007,0.034 0.022,0.06 0.045,0.078c0.024,0.019 0.054,0.028 0.09,0.028c0.058,-0 0.104,-0.027 0.137,-0.08c0.033,-0.053 0.047,-0.135 0.043,-0.246l0.011,0.037c-0.01,0.021 -0.025,0.041 -0.044,0.059c-0.019,0.018 -0.043,0.033 -0.071,0.044c-0.027,0.011 -0.059,0.016 -0.094,0.016c-0.041,0 -0.08,-0.009 -0.116,-0.028c-0.036,-0.018 -0.066,-0.045 -0.088,-0.079c-0.023,-0.034 -0.034,-0.073 -0.034,-0.119c0,-0.041 0.01,-0.08 0.031,-0.115c0.021,-0.036 0.05,-0.065 0.088,-0.088c0.038,-0.022 0.082,-0.033 0.133,-0.033c0.055,0 0.1,0.01 0.138,0.029c0.037,0.019 0.067,0.045 0.089,0.077c0.023,0.033 0.039,0.069 0.049,0.109c0.01,0.04 0.015,0.081 0.015,0.122c0,0.077 -0.011,0.145 -0.034,0.203c-0.022,0.058 -0.055,0.104 -0.098,0.136c-0.043,0.032 -0.095,0.048 -0.156,0.048Zm0.005,-0.356c0.032,0 0.06,-0.005 0.084,-0.017c0.024,-0.012 0.042,-0.028 0.055,-0.049c0.013,-0.02 0.019,-0.043 0.019,-0.07c0,-0.027 -0.006,-0.051 -0.019,-0.072c-0.014,-0.021 -0.032,-0.037 -0.056,-0.048c-0.024,-0.011 -0.052,-0.017 -0.084,-0.017c-0.031,0 -0.057,0.006 -0.08,0.017c-0.023,0.012 -0.04,0.028 -0.053,0.048c-0.012,0.02 -0.019,0.044 -0.019,0.072c0,0.028 0.007,0.052 0.019,0.073c0.013,0.02 0.031,0.036 0.054,0.047c0.023,0.011 0.049,0.016 0.08,0.016Z" style="fill:url(#_Linear16);fill-rule:nonzero;"/></g><g transform="matrix(8.91988,0,0,8.91988,69.4041,44.8729)"><path d="M0.325,0.012c-0.05,0 -0.095,-0.009 -0.136,-0.026c-0.04,-0.017 -0.071,-0.041 -0.095,-0.072c-0.024,-0.03 -0.035,-0.066 -0.035,-0.107c-0,-0.028 0.005,-0.055 0.017,-0.079c0.011,-0.025 0.027,-0.046 0.047,-0.064c0.02,-0.018 0.044,-0.031 0.071,-0.039c-0.036,-0.013 -0.064,-0.034 -0.085,-0.061c-0.02,-0.027 -0.03,-0.057 -0.03,-0.089c-0,-0.034 0.009,-0.065 0.028,-0.093c0.019,-0.028 0.047,-0.051 0.083,-0.068c0.037,-0.017 0.082,-0.026 0.135,-0.026c0.053,-0 0.098,0.009 0.135,0.026c0.036,0.017 0.064,0.04 0.083,0.068c0.019,0.028 0.028,0.059 0.028,0.093c0,0.032 -0.01,0.062 -0.03,0.089c-0.021,0.027 -0.049,0.048 -0.085,0.061c0.027,0.008 0.051,0.021 0.071,0.039c0.021,0.018 0.036,0.039 0.047,0.064c0.012,0.024 0.017,0.051 0.017,0.079c0,0.041 -0.011,0.077 -0.035,0.107c-0.024,0.031 -0.055,0.055 -0.095,0.072c-0.041,0.017 -0.086,0.026 -0.136,0.026Zm-0,-0.093c0.053,-0 0.092,-0.011 0.118,-0.032c0.027,-0.021 0.04,-0.051 0.04,-0.089c-0,-0.041 -0.014,-0.071 -0.042,-0.092c-0.027,-0.02 -0.066,-0.03 -0.116,-0.03c-0.05,-0 -0.089,0.01 -0.116,0.03c-0.028,0.021 -0.042,0.051 -0.042,0.092c0,0.038 0.013,0.068 0.04,0.089c0.026,0.021 0.065,0.032 0.118,0.032Zm-0,-0.328c0.044,-0 0.079,-0.01 0.103,-0.028c0.024,-0.019 0.036,-0.044 0.036,-0.077c-0,-0.036 -0.012,-0.062 -0.036,-0.08c-0.024,-0.018 -0.058,-0.027 -0.103,-0.027c-0.045,0 -0.079,0.009 -0.103,0.027c-0.024,0.018 -0.036,0.044 -0.036,0.08c0,0.033 0.012,0.058 0.037,0.077c0.024,0.018 0.058,0.028 0.102,0.028Z" style="fill:url(#_Linear17);fill-rule:nonzero;"/></g><g transform="matrix(8.91988,0,0,8.91988,75.202,44.8729)"><path d="M0.326,0.012c-0.052,0 -0.099,-0.008 -0.14,-0.025c-0.041,-0.016 -0.074,-0.041 -0.099,-0.075c-0.024,-0.033 -0.037,-0.075 -0.039,-0.125l0.11,0c-0,0.024 0.006,0.046 0.019,0.066c0.013,0.02 0.032,0.036 0.057,0.048c0.026,0.012 0.056,0.018 0.092,0.018c0.049,-0 0.087,-0.012 0.112,-0.036c0.026,-0.023 0.038,-0.052 0.038,-0.086c0,-0.029 -0.007,-0.052 -0.023,-0.07c-0.015,-0.018 -0.036,-0.032 -0.063,-0.041c-0.026,-0.009 -0.057,-0.013 -0.09,-0.013l-0.065,-0l-0,-0.092l0.065,0c0.045,0 0.082,-0.008 0.111,-0.026c0.028,-0.018 0.042,-0.044 0.042,-0.077c-0,-0.029 -0.011,-0.052 -0.033,-0.07c-0.023,-0.017 -0.054,-0.026 -0.095,-0.026c-0.045,0 -0.079,0.01 -0.104,0.031c-0.024,0.021 -0.038,0.047 -0.04,0.078l-0.11,-0c0.002,-0.042 0.014,-0.077 0.035,-0.107c0.02,-0.031 0.05,-0.054 0.087,-0.071c0.038,-0.017 0.082,-0.025 0.132,-0.025c0.052,0 0.095,0.008 0.13,0.025c0.035,0.016 0.062,0.038 0.08,0.066c0.017,0.027 0.026,0.058 0.026,0.091c0,0.037 -0.011,0.07 -0.033,0.098c-0.023,0.028 -0.053,0.047 -0.091,0.057c0.044,0.007 0.079,0.027 0.107,0.057c0.028,0.031 0.042,0.07 0.042,0.118c0,0.038 -0.01,0.073 -0.03,0.105c-0.02,0.033 -0.049,0.058 -0.087,0.078c-0.039,0.019 -0.086,0.029 -0.143,0.029Z" style="fill:url(#_Linear18);fill-rule:nonzero;"/></g><g transform="matrix(8.91988,0,0,8.91988,80.9999,44.8729)"></g><g><path d="M39.496,7.155l0.475,0c0.113,0.771 0.421,1.377 0.924,1.819c0.503,0.443 1.124,0.664 1.862,0.664c0.3,-0 0.576,-0.037 0.827,-0.11c0.252,-0.073 0.467,-0.176 0.645,-0.31c0.179,-0.134 0.317,-0.292 0.414,-0.475c0.097,-0.182 0.146,-0.387 0.146,-0.614c0,-0.195 -0.03,-0.363 -0.091,-0.505c-0.061,-0.142 -0.177,-0.28 -0.347,-0.414c-0.17,-0.134 -0.404,-0.27 -0.7,-0.408c-0.296,-0.137 -0.679,-0.296 -1.15,-0.474c-0.949,-0.365 -1.65,-0.789 -2.105,-1.272c-0.454,-0.482 -0.681,-1.052 -0.681,-1.709c-0,-0.382 0.073,-0.73 0.219,-1.047c0.146,-0.316 0.351,-0.588 0.614,-0.815c0.264,-0.227 0.581,-0.404 0.95,-0.529c0.369,-0.126 0.776,-0.189 1.223,-0.189c0.413,0 0.803,0.065 1.168,0.195c0.365,0.13 0.726,0.324 1.083,0.584l0.219,-0.609l0.292,0l0.134,2.629l-0.475,-0c-0.195,-0.665 -0.499,-1.175 -0.913,-1.527c-0.413,-0.353 -0.892,-0.53 -1.435,-0.53c-0.503,0 -0.911,0.124 -1.223,0.371c-0.313,0.248 -0.469,0.566 -0.469,0.956c0,0.17 0.029,0.322 0.085,0.456c0.057,0.134 0.163,0.262 0.317,0.383c0.154,0.122 0.365,0.246 0.632,0.371c0.268,0.126 0.613,0.266 1.035,0.42c0.568,0.219 1.052,0.44 1.454,0.663c0.401,0.223 0.73,0.463 0.985,0.718c0.256,0.256 0.445,0.525 0.566,0.809c0.122,0.284 0.183,0.597 0.183,0.937c-0,0.414 -0.089,0.791 -0.268,1.132c-0.178,0.341 -0.428,0.633 -0.748,0.876c-0.321,0.243 -0.702,0.434 -1.144,0.572c-0.442,0.138 -0.931,0.207 -1.466,0.207c-0.487,-0 -0.925,-0.067 -1.314,-0.201c-0.39,-0.134 -0.791,-0.351 -1.205,-0.651l-0.243,0.73l-0.293,0l-0.182,-3.103Z" style="fill:url(#_Linear19);fill-rule:nonzero;"/><path d="M51.092,6.79c-0.681,0.309 -1.194,0.594 -1.539,0.858c-0.345,0.264 -0.517,0.538 -0.517,0.821c-0,0.236 0.065,0.422 0.194,0.56c0.13,0.138 0.292,0.207 0.487,0.207c0.195,0 0.377,-0.034 0.548,-0.103c0.17,-0.069 0.316,-0.161 0.438,-0.274c0.121,-0.114 0.217,-0.25 0.286,-0.408c0.069,-0.158 0.103,-0.326 0.103,-0.505l0,-1.156Zm0,-0.645l0,-0.511c0,-0.47 -0.083,-0.813 -0.249,-1.028c-0.167,-0.215 -0.424,-0.322 -0.773,-0.322c-0.235,-0 -0.414,0.062 -0.535,0.188c-0.122,0.126 -0.236,0.335 -0.341,0.627c-0.073,0.203 -0.176,0.361 -0.31,0.474c-0.134,0.114 -0.319,0.171 -0.554,0.171c-0.227,-0 -0.402,-0.069 -0.523,-0.207c-0.122,-0.138 -0.183,-0.333 -0.183,-0.584c0,-0.39 0.213,-0.698 0.639,-0.925c0.426,-0.227 1.069,-0.341 1.929,-0.341c0.908,0 1.557,0.165 1.947,0.493c0.389,0.329 0.584,0.878 0.584,1.649l-0,2.665c-0,0.689 0.138,1.034 0.413,1.034c0.155,0 0.297,-0.053 0.426,-0.158l0.183,0.353c-0.114,0.203 -0.29,0.363 -0.529,0.48c-0.24,0.118 -0.51,0.177 -0.81,0.177c-0.373,-0 -0.657,-0.114 -0.851,-0.341c-0.195,-0.227 -0.292,-0.547 -0.292,-0.961l-0.061,-0c-0.236,0.422 -0.54,0.742 -0.913,0.961c-0.373,0.219 -0.799,0.329 -1.278,0.329c-0.511,-0 -0.92,-0.144 -1.229,-0.432c-0.308,-0.288 -0.462,-0.663 -0.462,-1.126c0,-0.357 0.158,-0.691 0.475,-1.004c0.316,-0.312 0.843,-0.618 1.581,-0.918l1.716,-0.743Z" style="fill:url(#_Linear20);fill-rule:nonzero;"/><path d="M57.018,8.275c0,0.332 0.01,0.594 0.03,0.785c0.021,0.19 0.065,0.336 0.134,0.438c0.069,0.101 0.175,0.168 0.317,0.2c0.142,0.033 0.334,0.057 0.578,0.073l-0,0.487l-3.833,0l-0,-0.487c0.235,-0.016 0.424,-0.04 0.566,-0.073c0.141,-0.032 0.251,-0.097 0.328,-0.194c0.077,-0.098 0.128,-0.236 0.152,-0.414c0.025,-0.178 0.037,-0.422 0.037,-0.73l-0,-1.521c-0,-0.479 -0.008,-0.866 -0.025,-1.162c-0.016,-0.296 -0.036,-0.497 -0.06,-0.602c-0.025,-0.106 -0.057,-0.193 -0.098,-0.262c-0.04,-0.069 -0.101,-0.122 -0.182,-0.158c-0.081,-0.037 -0.183,-0.061 -0.305,-0.073c-0.121,-0.012 -0.275,-0.019 -0.462,-0.019l0,-0.413l2.348,-0.463l0.159,1.071l0.048,0c0.268,-0.341 0.584,-0.604 0.949,-0.791c0.366,-0.186 0.767,-0.28 1.205,-0.28c0.519,0 0.939,0.071 1.26,0.213c0.32,0.142 0.606,0.38 0.857,0.712c0.138,0.187 0.26,0.428 0.365,0.724c0.106,0.296 0.159,0.704 0.159,1.223l-0,1.716c-0,0.332 0.01,0.594 0.03,0.785c0.02,0.19 0.065,0.336 0.134,0.438c0.069,0.101 0.172,0.168 0.31,0.2c0.138,0.033 0.325,0.057 0.56,0.073l-0,0.487l-3.809,0l0,-0.487c0.244,-0.008 0.436,-0.03 0.578,-0.066c0.142,-0.037 0.25,-0.104 0.323,-0.201c0.073,-0.098 0.121,-0.238 0.146,-0.42c0.024,-0.183 0.036,-0.424 0.036,-0.724l0,-1.655c0,-0.414 -0.024,-0.762 -0.073,-1.046c-0.048,-0.284 -0.128,-0.513 -0.237,-0.688c-0.11,-0.174 -0.254,-0.3 -0.432,-0.377c-0.179,-0.077 -0.402,-0.116 -0.669,-0.116c-0.26,0 -0.483,0.073 -0.67,0.219c-0.186,0.146 -0.348,0.349 -0.486,0.609c-0.073,0.146 -0.136,0.334 -0.189,0.566c-0.053,0.231 -0.079,0.472 -0.079,0.724l0,1.679Z" style="fill:url(#_Linear21);fill-rule:nonzero;"/><path d="M63.041,4.478l0,-0.547c0.487,-0.138 0.895,-0.347 1.223,-0.627c0.329,-0.28 0.574,-0.602 0.736,-0.967l0.621,-0l-0,1.472l1.399,0l0,0.669l-1.399,0l-0,3.736c-0,0.503 0.055,0.86 0.164,1.071c0.11,0.211 0.294,0.316 0.554,0.316c0.316,0 0.556,-0.146 0.718,-0.438l0.255,0.353c-0.227,0.576 -0.762,0.864 -1.606,0.864c-0.56,-0 -0.996,-0.13 -1.308,-0.39c-0.312,-0.259 -0.468,-0.624 -0.468,-1.095l-0,-4.417l-0.889,0Z" style="fill:url(#_Linear22);fill-rule:nonzero;"/><path d="M70.512,8.263c0,0.324 0.013,0.584 0.037,0.778c0.024,0.195 0.073,0.345 0.146,0.451c0.073,0.105 0.178,0.176 0.316,0.213c0.138,0.036 0.325,0.058 0.56,0.066l0,0.487l-3.833,0l0,-0.487c0.227,-0.008 0.412,-0.034 0.554,-0.079c0.142,-0.044 0.251,-0.117 0.328,-0.219c0.077,-0.101 0.13,-0.243 0.159,-0.426c0.028,-0.182 0.042,-0.415 0.042,-0.699l0,-1.497c0,-0.47 -0.008,-0.858 -0.024,-1.162c-0.016,-0.304 -0.037,-0.513 -0.061,-0.627c-0.041,-0.202 -0.132,-0.336 -0.274,-0.401c-0.142,-0.065 -0.399,-0.098 -0.773,-0.098l0,-0.413l2.823,-0.463l0,4.576Zm-1.788,-7.155c-0,-0.268 0.091,-0.493 0.274,-0.676c0.182,-0.182 0.403,-0.273 0.663,-0.273c0.267,-0 0.493,0.091 0.675,0.273c0.183,0.183 0.274,0.408 0.274,0.676c-0,0.259 -0.091,0.48 -0.274,0.663c-0.182,0.182 -0.408,0.274 -0.675,0.274c-0.26,-0 -0.481,-0.092 -0.663,-0.274c-0.183,-0.183 -0.274,-0.404 -0.274,-0.663Z" style="fill:url(#_Linear23);fill-rule:nonzero;"/><path d="M75.964,6.79c-0.682,0.309 -1.195,0.594 -1.539,0.858c-0.345,0.264 -0.518,0.538 -0.518,0.821c0,0.236 0.065,0.422 0.195,0.56c0.13,0.138 0.292,0.207 0.487,0.207c0.195,0 0.377,-0.034 0.547,-0.103c0.171,-0.069 0.317,-0.161 0.438,-0.274c0.122,-0.114 0.217,-0.25 0.286,-0.408c0.069,-0.158 0.104,-0.326 0.104,-0.505l-0,-1.156Zm-0,-0.645l-0,-0.511c-0,-0.47 -0.083,-0.813 -0.25,-1.028c-0.166,-0.215 -0.423,-0.322 -0.772,-0.322c-0.236,-0 -0.414,0.062 -0.536,0.188c-0.121,0.126 -0.235,0.335 -0.34,0.627c-0.073,0.203 -0.177,0.361 -0.311,0.474c-0.134,0.114 -0.318,0.171 -0.553,0.171c-0.227,-0 -0.402,-0.069 -0.524,-0.207c-0.121,-0.138 -0.182,-0.333 -0.182,-0.584c-0,-0.39 0.213,-0.698 0.639,-0.925c0.426,-0.227 1.068,-0.341 1.928,-0.341c0.909,0 1.558,0.165 1.947,0.493c0.39,0.329 0.584,0.878 0.584,1.649l0,2.665c0,0.689 0.138,1.034 0.414,1.034c0.154,0 0.296,-0.053 0.426,-0.158l0.182,0.353c-0.113,0.203 -0.29,0.363 -0.529,0.48c-0.239,0.118 -0.509,0.177 -0.809,0.177c-0.373,-0 -0.657,-0.114 -0.852,-0.341c-0.194,-0.227 -0.292,-0.547 -0.292,-0.961l-0.061,-0c-0.235,0.422 -0.539,0.742 -0.912,0.961c-0.373,0.219 -0.799,0.329 -1.278,0.329c-0.511,-0 -0.921,-0.144 -1.229,-0.432c-0.308,-0.288 -0.462,-0.663 -0.462,-1.126c-0,-0.357 0.158,-0.691 0.474,-1.004c0.317,-0.312 0.844,-0.618 1.582,-0.918l1.716,-0.743Z" style="fill:url(#_Linear24);fill-rule:nonzero;"/><path d="M81.537,8.944c0.219,0.016 0.411,0.032 0.578,0.049c0.166,0.016 0.324,0.034 0.474,0.054c0.15,0.021 0.3,0.041 0.451,0.061c0.15,0.021 0.31,0.043 0.48,0.067c0.633,0.089 1.13,0.327 1.491,0.712c0.361,0.385 0.541,0.862 0.541,1.43c0,0.689 -0.284,1.213 -0.851,1.569c-0.568,0.357 -1.404,0.536 -2.507,0.536c-1.014,-0 -1.795,-0.148 -2.342,-0.444c-0.548,-0.296 -0.822,-0.716 -0.822,-1.26c0,-0.421 0.11,-0.74 0.329,-0.955c0.219,-0.215 0.495,-0.322 0.827,-0.322c0.211,-0 0.416,0.042 0.615,0.127c0.198,0.086 0.367,0.209 0.505,0.372c-0.211,0.04 -0.384,0.135 -0.518,0.286c-0.133,0.15 -0.2,0.326 -0.2,0.529c-0,0.324 0.144,0.574 0.432,0.748c0.288,0.175 0.711,0.262 1.271,0.262c1.217,-0 1.825,-0.386 1.825,-1.156c0,-0.276 -0.091,-0.513 -0.273,-0.712c-0.183,-0.199 -0.444,-0.318 -0.785,-0.359l-2.13,-0.292c-0.9,-0.122 -1.35,-0.523 -1.35,-1.205c-0,-0.332 0.107,-0.604 0.322,-0.815c0.215,-0.211 0.521,-0.357 0.919,-0.438l-0,-0.049c-0.187,-0.073 -0.355,-0.174 -0.505,-0.304c-0.15,-0.13 -0.282,-0.28 -0.396,-0.45c-0.113,-0.17 -0.2,-0.355 -0.261,-0.554c-0.061,-0.198 -0.091,-0.403 -0.091,-0.614c-0,-0.3 0.062,-0.582 0.188,-0.846c0.126,-0.264 0.3,-0.489 0.523,-0.675c0.223,-0.187 0.487,-0.335 0.791,-0.444c0.305,-0.11 0.635,-0.165 0.992,-0.165c0.349,0 0.69,0.053 1.022,0.159c0.333,0.105 0.617,0.251 0.852,0.438c0.187,-0.114 0.349,-0.209 0.487,-0.286c0.138,-0.077 0.265,-0.138 0.383,-0.183c0.118,-0.044 0.225,-0.077 0.322,-0.097c0.098,-0.02 0.195,-0.031 0.292,-0.031c0.309,0 0.558,0.069 0.749,0.207c0.19,0.138 0.286,0.321 0.286,0.548c-0,0.17 -0.053,0.31 -0.158,0.42c-0.106,0.109 -0.244,0.164 -0.414,0.164c-0.122,-0 -0.219,-0.026 -0.292,-0.079c-0.073,-0.053 -0.144,-0.114 -0.213,-0.183c-0.069,-0.069 -0.14,-0.13 -0.213,-0.182c-0.073,-0.053 -0.17,-0.079 -0.292,-0.079c-0.17,-0 -0.333,0.109 -0.487,0.328c0.081,0.138 0.138,0.286 0.171,0.444c0.032,0.159 0.048,0.343 0.048,0.554c0,0.308 -0.048,0.592 -0.146,0.852c-0.097,0.259 -0.249,0.488 -0.456,0.687c-0.207,0.199 -0.473,0.367 -0.797,0.505c-0.325,0.138 -0.718,0.231 -1.18,0.28c-0.39,0.041 -0.66,0.093 -0.81,0.158c-0.15,0.065 -0.225,0.163 -0.225,0.292c0,0.195 0.183,0.309 0.548,0.341Zm0.584,-1.484c0.259,-0 0.462,-0.138 0.608,-0.414c0.146,-0.276 0.219,-0.661 0.219,-1.156c0,-0.503 -0.073,-0.89 -0.219,-1.162c-0.146,-0.272 -0.353,-0.408 -0.62,-0.408c-0.276,0 -0.495,0.138 -0.657,0.414c-0.163,0.276 -0.244,0.653 -0.244,1.131c0,0.487 0.083,0.875 0.25,1.163c0.166,0.288 0.387,0.432 0.663,0.432Z" style="fill:url(#_Linear25);fill-rule:nonzero;"/><path d="M90.103,3.687c0.487,0 0.947,0.084 1.381,0.25c0.434,0.166 0.816,0.395 1.144,0.687c0.329,0.292 0.588,0.639 0.779,1.041c0.19,0.401 0.286,0.841 0.286,1.32c-0,0.495 -0.096,0.949 -0.286,1.363c-0.191,0.413 -0.45,0.77 -0.779,1.071c-0.328,0.3 -0.71,0.535 -1.144,0.705c-0.434,0.171 -0.894,0.256 -1.381,0.256c-0.478,-0 -0.933,-0.083 -1.363,-0.25c-0.43,-0.166 -0.807,-0.399 -1.131,-0.699c-0.325,-0.3 -0.58,-0.659 -0.767,-1.077c-0.186,-0.418 -0.28,-0.874 -0.28,-1.369c0,-0.479 0.094,-0.921 0.28,-1.326c0.187,-0.406 0.442,-0.755 0.767,-1.047c0.324,-0.292 0.701,-0.519 1.131,-0.681c0.43,-0.162 0.885,-0.244 1.363,-0.244Zm0,0.706c-0.243,0 -0.466,0.063 -0.669,0.189c-0.203,0.125 -0.375,0.302 -0.517,0.529c-0.142,0.227 -0.252,0.501 -0.329,0.821c-0.077,0.321 -0.115,0.676 -0.115,1.065c-0,0.406 0.038,0.771 0.115,1.095c0.077,0.325 0.187,0.601 0.329,0.828c0.142,0.227 0.312,0.403 0.511,0.529c0.199,0.126 0.424,0.189 0.675,0.189c0.252,-0 0.481,-0.063 0.688,-0.189c0.207,-0.126 0.383,-0.304 0.529,-0.535c0.146,-0.232 0.26,-0.509 0.341,-0.834c0.081,-0.324 0.121,-0.685 0.121,-1.083c0,-0.389 -0.04,-0.742 -0.121,-1.059c-0.081,-0.316 -0.195,-0.59 -0.341,-0.821c-0.146,-0.231 -0.322,-0.41 -0.529,-0.535c-0.207,-0.126 -0.436,-0.189 -0.688,-0.189Z" style="fill:url(#_Linear26);fill-rule:nonzero;"/><path d="M47.442,13.057l0.596,-0l-0.243,3.078l-0.487,0c-0.17,-0.746 -0.501,-1.334 -0.992,-1.764c-0.491,-0.43 -1.085,-0.645 -1.782,-0.645c-0.479,0 -0.905,0.095 -1.278,0.286c-0.373,0.191 -0.688,0.462 -0.943,0.815c-0.256,0.353 -0.45,0.783 -0.584,1.29c-0.134,0.507 -0.201,1.077 -0.201,1.71c0,1.257 0.258,2.224 0.773,2.902c0.515,0.677 1.275,1.016 2.281,1.016c0.811,-0 1.483,-0.219 2.014,-0.657c0.531,-0.438 0.911,-1.091 1.138,-1.959l0.535,-0l0,3.297l-0.572,0l-0.17,-0.961c-0.892,0.722 -1.975,1.083 -3.249,1.083c-0.738,-0 -1.407,-0.11 -2.008,-0.329c-0.6,-0.219 -1.111,-0.529 -1.533,-0.93c-0.422,-0.402 -0.748,-0.891 -0.979,-1.467c-0.232,-0.576 -0.347,-1.216 -0.347,-1.922c-0,-0.738 0.121,-1.412 0.365,-2.02c0.243,-0.609 0.586,-1.132 1.028,-1.57c0.442,-0.438 0.969,-0.777 1.582,-1.016c0.612,-0.239 1.292,-0.359 2.038,-0.359c0.495,0 0.957,0.069 1.387,0.207c0.43,0.138 0.897,0.361 1.4,0.669l0.231,-0.754Z" style="fill:url(#_Linear27);fill-rule:nonzero;"/><path d="M51.822,20.431c0,0.332 0.01,0.594 0.031,0.785c0.02,0.19 0.065,0.338 0.134,0.444c0.068,0.105 0.174,0.174 0.316,0.207c0.142,0.032 0.335,0.056 0.578,0.073l-0,0.486l-3.833,0l-0,-0.486c0.243,-0.017 0.438,-0.041 0.584,-0.073c0.146,-0.033 0.256,-0.098 0.329,-0.195c0.073,-0.097 0.119,-0.237 0.139,-0.42c0.021,-0.182 0.031,-0.428 0.031,-0.736l-0,-5.001c-0,-0.487 -0.006,-0.87 -0.018,-1.15c-0.013,-0.28 -0.035,-0.493 -0.067,-0.639c-0.025,-0.105 -0.053,-0.189 -0.085,-0.249c-0.033,-0.061 -0.084,-0.11 -0.153,-0.146c-0.069,-0.037 -0.162,-0.061 -0.279,-0.073c-0.118,-0.013 -0.266,-0.019 -0.445,-0.019l0,-0.45l2.714,-0.462l-0,4.49l0.049,-0c0.251,-0.333 0.533,-0.576 0.845,-0.73c0.313,-0.154 0.688,-0.231 1.126,-0.231c0.795,-0 1.411,0.243 1.849,0.73c0.211,0.243 0.378,0.537 0.499,0.882c0.122,0.345 0.183,0.704 0.183,1.077l-0,1.886c-0,0.34 0.008,0.606 0.024,0.797c0.016,0.19 0.059,0.336 0.128,0.438c0.069,0.101 0.172,0.168 0.31,0.201c0.138,0.032 0.329,0.056 0.572,0.073l0,0.486l-3.809,0l0,-0.486c0.244,-0.009 0.436,-0.031 0.578,-0.067c0.142,-0.037 0.252,-0.104 0.329,-0.201c0.077,-0.097 0.126,-0.237 0.146,-0.42c0.02,-0.182 0.03,-0.428 0.03,-0.736l0,-1.497c0,-0.86 -0.093,-1.468 -0.279,-1.825c-0.187,-0.357 -0.507,-0.535 -0.962,-0.535c-0.486,-0 -0.872,0.178 -1.156,0.535c-0.138,0.187 -0.245,0.418 -0.322,0.694c-0.077,0.275 -0.116,0.584 -0.116,0.924l0,1.619Z" style="fill:url(#_Linear28);fill-rule:nonzero;"/><path d="M60.668,20.431c0,0.324 0.013,0.584 0.037,0.778c0.024,0.195 0.073,0.345 0.146,0.451c0.073,0.105 0.178,0.176 0.316,0.213c0.138,0.036 0.325,0.058 0.56,0.067l0,0.486l-3.833,0l0,-0.486c0.227,-0.009 0.412,-0.035 0.554,-0.08c0.142,-0.044 0.251,-0.117 0.328,-0.219c0.077,-0.101 0.13,-0.243 0.159,-0.425c0.028,-0.183 0.042,-0.416 0.042,-0.7l0,-1.497c0,-0.47 -0.008,-0.858 -0.024,-1.162c-0.016,-0.304 -0.037,-0.513 -0.061,-0.626c-0.041,-0.203 -0.132,-0.337 -0.274,-0.402c-0.142,-0.065 -0.399,-0.097 -0.773,-0.097l0,-0.414l2.823,-0.462l0,4.575Zm-1.788,-7.155c-0,-0.268 0.091,-0.493 0.274,-0.675c0.182,-0.183 0.403,-0.274 0.663,-0.274c0.267,-0 0.493,0.091 0.675,0.274c0.183,0.182 0.274,0.407 0.274,0.675c-0,0.259 -0.091,0.481 -0.274,0.663c-0.182,0.183 -0.408,0.274 -0.675,0.274c-0.26,-0 -0.481,-0.091 -0.663,-0.274c-0.183,-0.182 -0.274,-0.404 -0.274,-0.663Z" style="fill:url(#_Linear29);fill-rule:nonzero;"/><path d="M64.939,20.431c0,0.324 0.013,0.584 0.037,0.778c0.024,0.195 0.073,0.345 0.146,0.451c0.073,0.105 0.178,0.176 0.316,0.213c0.138,0.036 0.325,0.058 0.56,0.067l0,0.486l-3.833,0l0,-0.486c0.227,-0.009 0.412,-0.035 0.554,-0.08c0.142,-0.044 0.251,-0.117 0.328,-0.219c0.077,-0.101 0.13,-0.243 0.159,-0.425c0.028,-0.183 0.042,-0.416 0.042,-0.7l0,-5.026c0,-0.47 -0.008,-0.857 -0.024,-1.162c-0.016,-0.304 -0.037,-0.513 -0.061,-0.626c-0.041,-0.203 -0.132,-0.337 -0.274,-0.402c-0.142,-0.065 -0.399,-0.097 -0.773,-0.097l0,-0.414l2.823,-0.462l0,8.104Z" style="fill:url(#_Linear30);fill-rule:nonzero;"/><path d="M72.107,21.648l-0.049,-0c-0.56,0.6 -1.286,0.9 -2.178,0.9c-0.463,-0 -0.886,-0.081 -1.272,-0.243c-0.385,-0.163 -0.718,-0.39 -0.998,-0.682c-0.279,-0.292 -0.496,-0.639 -0.651,-1.04c-0.154,-0.402 -0.231,-0.846 -0.231,-1.333c0,-0.486 0.079,-0.937 0.237,-1.35c0.159,-0.414 0.374,-0.773 0.645,-1.077c0.272,-0.304 0.597,-0.542 0.974,-0.712c0.377,-0.17 0.785,-0.255 1.223,-0.255c0.405,-0 0.764,0.06 1.077,0.182c0.312,0.122 0.586,0.329 0.821,0.621l0.049,-0l-0,-1.035c-0,-0.478 -0.006,-0.89 -0.019,-1.235c-0.012,-0.345 -0.03,-0.57 -0.054,-0.675c-0.041,-0.17 -0.165,-0.294 -0.371,-0.371c-0.207,-0.077 -0.526,-0.116 -0.956,-0.116l0,-0.414l3.079,-0.486l-0,6.96c-0,0.608 0.006,1.077 0.018,1.405c0.012,0.329 0.035,0.578 0.067,0.749c0.016,0.105 0.041,0.19 0.073,0.255c0.032,0.065 0.081,0.116 0.146,0.152c0.065,0.037 0.152,0.061 0.262,0.073c0.109,0.012 0.249,0.019 0.419,0.019l0,0.474l-2.311,0.134l-0,-0.9Zm-0.378,-2.714c0,-0.308 -0.032,-0.594 -0.097,-0.858c-0.065,-0.263 -0.162,-0.497 -0.292,-0.699c-0.146,-0.236 -0.333,-0.414 -0.56,-0.536c-0.227,-0.122 -0.47,-0.182 -0.73,-0.182c-0.479,-0 -0.844,0.219 -1.095,0.657c-0.252,0.438 -0.377,1.075 -0.377,1.91c-0,0.844 0.125,1.493 0.377,1.947c0.251,0.454 0.612,0.681 1.083,0.681c0.268,0 0.523,-0.069 0.767,-0.206c0.243,-0.138 0.442,-0.325 0.596,-0.56c0.113,-0.179 0.196,-0.4 0.249,-0.663c0.053,-0.264 0.079,-0.603 0.079,-1.016l0,-0.475Z" style="fill:url(#_Linear31);fill-rule:nonzero;"/><path d="M77.838,20.54c-0,0.317 0.014,0.566 0.042,0.749c0.029,0.182 0.087,0.322 0.177,0.419c0.089,0.098 0.219,0.161 0.389,0.189c0.17,0.028 0.398,0.043 0.682,0.043l-0,0.486l-4.065,0l0,-0.486c0.244,-0.017 0.438,-0.041 0.584,-0.073c0.146,-0.033 0.256,-0.098 0.329,-0.195c0.073,-0.097 0.12,-0.237 0.14,-0.42c0.02,-0.182 0.03,-0.428 0.03,-0.736l0,-1.485c0,-0.503 -0.012,-0.904 -0.036,-1.204c-0.025,-0.3 -0.077,-0.532 -0.158,-0.694c-0.081,-0.162 -0.197,-0.27 -0.347,-0.322c-0.15,-0.053 -0.347,-0.079 -0.59,-0.079l-0,-0.426l2.433,-0.45l0.195,1.399l0.049,-0c0.219,-0.43 0.507,-0.771 0.864,-1.022c0.357,-0.252 0.734,-0.377 1.131,-0.377c0.309,-0 0.56,0.077 0.755,0.231c0.194,0.154 0.292,0.349 0.292,0.584c-0,0.259 -0.075,0.478 -0.225,0.657c-0.15,0.178 -0.355,0.268 -0.615,0.268c-0.122,-0 -0.231,-0.025 -0.328,-0.073c-0.098,-0.049 -0.185,-0.104 -0.262,-0.165c-0.077,-0.061 -0.154,-0.117 -0.231,-0.17c-0.077,-0.053 -0.156,-0.079 -0.238,-0.079c-0.154,-0 -0.3,0.101 -0.438,0.304c-0.137,0.203 -0.251,0.475 -0.34,0.815c-0.065,0.244 -0.118,0.517 -0.158,0.822c-0.041,0.304 -0.061,0.606 -0.061,0.906l-0,0.584Z" style="fill:url(#_Linear32);fill-rule:nonzero;"/><path d="M87.256,21.295c-0.738,0.835 -1.659,1.253 -2.762,1.253c-0.503,-0 -0.96,-0.079 -1.369,-0.237c-0.41,-0.158 -0.761,-0.382 -1.053,-0.67c-0.292,-0.288 -0.519,-0.63 -0.681,-1.028c-0.162,-0.397 -0.244,-0.839 -0.244,-1.326c0,-0.503 0.086,-0.963 0.256,-1.381c0.17,-0.418 0.412,-0.779 0.724,-1.083c0.312,-0.304 0.681,-0.542 1.107,-0.712c0.426,-0.17 0.895,-0.255 1.406,-0.255c0.86,-0 1.529,0.231 2.007,0.693c0.479,0.462 0.718,1.111 0.718,1.947c0,0.13 -0.02,0.209 -0.061,0.237c-0.04,0.029 -0.154,0.043 -0.34,0.043l-3.918,-0c-0.033,0.073 -0.049,0.207 -0.049,0.401c-0,0.795 0.172,1.424 0.517,1.886c0.345,0.463 0.813,0.694 1.406,0.694c0.34,0 0.679,-0.077 1.016,-0.231c0.336,-0.154 0.663,-0.373 0.979,-0.657l0.341,0.426Zm-2.361,-3.201c0.325,0 0.534,-0.018 0.627,-0.054c0.093,-0.037 0.14,-0.124 0.14,-0.262c-0,-0.357 -0.102,-0.649 -0.304,-0.876c-0.203,-0.227 -0.459,-0.341 -0.767,-0.341c-0.349,0 -0.659,0.144 -0.931,0.432c-0.272,0.288 -0.448,0.655 -0.529,1.101l1.764,0Z" style="fill:url(#_Linear33);fill-rule:nonzero;"/><path d="M90.931,20.443c-0,0.332 0.01,0.594 0.03,0.785c0.02,0.19 0.065,0.336 0.134,0.438c0.069,0.101 0.174,0.168 0.316,0.201c0.142,0.032 0.335,0.056 0.578,0.073l0,0.486l-3.833,0l0,-0.486c0.236,-0.017 0.424,-0.041 0.566,-0.073c0.142,-0.033 0.252,-0.098 0.329,-0.195c0.077,-0.097 0.127,-0.235 0.152,-0.414c0.024,-0.178 0.036,-0.422 0.036,-0.73l0,-1.521c0,-0.479 -0.008,-0.866 -0.024,-1.162c-0.016,-0.296 -0.037,-0.497 -0.061,-0.602c-0.024,-0.106 -0.057,-0.193 -0.097,-0.262c-0.041,-0.069 -0.102,-0.122 -0.183,-0.158c-0.081,-0.037 -0.182,-0.061 -0.304,-0.073c-0.122,-0.012 -0.276,-0.018 -0.462,-0.018l-0,-0.414l2.348,-0.462l0.158,1.07l0.049,0c0.268,-0.34 0.584,-0.604 0.949,-0.791c0.365,-0.186 0.767,-0.279 1.205,-0.279c0.519,-0 0.939,0.07 1.259,0.212c0.32,0.142 0.606,0.38 0.858,0.712c0.138,0.187 0.259,0.428 0.365,0.724c0.105,0.296 0.158,0.704 0.158,1.223l0,1.716c0,0.332 0.01,0.594 0.031,0.785c0.02,0.19 0.064,0.336 0.133,0.438c0.069,0.101 0.173,0.168 0.311,0.201c0.138,0.032 0.324,0.056 0.559,0.073l0,0.486l-3.808,0l-0,-0.486c0.243,-0.009 0.436,-0.031 0.578,-0.067c0.142,-0.037 0.249,-0.104 0.322,-0.201c0.073,-0.097 0.122,-0.237 0.146,-0.42c0.025,-0.182 0.037,-0.424 0.037,-0.724l-0,-1.655c-0,-0.414 -0.025,-0.762 -0.073,-1.046c-0.049,-0.284 -0.128,-0.513 -0.238,-0.688c-0.109,-0.174 -0.253,-0.3 -0.431,-0.377c-0.179,-0.077 -0.402,-0.116 -0.67,-0.116c-0.259,0 -0.482,0.073 -0.669,0.219c-0.187,0.146 -0.349,0.349 -0.487,0.609c-0.073,0.146 -0.136,0.334 -0.188,0.566c-0.053,0.231 -0.079,0.472 -0.079,0.724l-0,1.679Z" style="fill:url(#_Linear34);fill-rule:nonzero;"/><path d="M97.38,15.685c-0.041,-0.219 -0.088,-0.462 -0.14,-0.73c-0.053,-0.268 -0.104,-0.527 -0.152,-0.779c-0.049,-0.251 -0.09,-0.478 -0.122,-0.681c-0.032,-0.203 -0.049,-0.353 -0.049,-0.45c0,-0.211 0.067,-0.384 0.201,-0.517c0.134,-0.134 0.302,-0.201 0.505,-0.201c0.211,-0 0.383,0.069 0.517,0.207c0.134,0.138 0.201,0.312 0.201,0.523c-0,0.097 -0.018,0.247 -0.055,0.45c-0.036,0.203 -0.079,0.428 -0.128,0.675c-0.048,0.248 -0.099,0.505 -0.152,0.773c-0.052,0.268 -0.095,0.511 -0.127,0.73l-0.499,0Z" style="fill:url(#_Linear35);fill-rule:nonzero;"/><path d="M99.801,22.426l-0.377,0l-0,-2.214l0.511,-0c0.138,0.584 0.337,1.01 0.596,1.277c0.26,0.268 0.596,0.402 1.01,0.402c0.3,-0 0.534,-0.063 0.7,-0.189c0.166,-0.125 0.249,-0.298 0.249,-0.517c0,-0.227 -0.101,-0.448 -0.304,-0.663c-0.203,-0.215 -0.531,-0.444 -0.986,-0.688c-0.616,-0.332 -1.058,-0.663 -1.326,-0.991c-0.268,-0.329 -0.401,-0.7 -0.401,-1.114c-0,-0.267 0.05,-0.517 0.152,-0.748c0.101,-0.231 0.239,-0.432 0.413,-0.602c0.175,-0.171 0.384,-0.302 0.627,-0.396c0.243,-0.093 0.507,-0.14 0.791,-0.14c0.251,0 0.501,0.037 0.748,0.11c0.248,0.073 0.465,0.174 0.651,0.304l0.219,-0.292l0.317,0l-0,1.837l-0.475,0c-0.186,-0.462 -0.379,-0.795 -0.578,-0.997c-0.199,-0.203 -0.44,-0.305 -0.724,-0.305c-0.227,0 -0.407,0.061 -0.541,0.183c-0.134,0.122 -0.201,0.284 -0.201,0.487c-0,0.227 0.099,0.442 0.298,0.645c0.199,0.202 0.529,0.425 0.992,0.669c0.324,0.178 0.604,0.353 0.839,0.523c0.236,0.17 0.426,0.343 0.572,0.517c0.146,0.175 0.254,0.357 0.323,0.548c0.069,0.19 0.103,0.395 0.103,0.614c0,0.284 -0.053,0.54 -0.158,0.767c-0.105,0.227 -0.256,0.422 -0.45,0.584c-0.195,0.162 -0.428,0.288 -0.7,0.377c-0.272,0.089 -0.574,0.134 -0.906,0.134c-0.349,-0 -0.674,-0.047 -0.974,-0.14c-0.3,-0.093 -0.547,-0.229 -0.742,-0.408l-0.268,0.426Z" style="fill:url(#_Linear36);fill-rule:nonzero;"/><path d="M47.442,25.225l0.596,-0l-0.243,3.078l-0.487,0c-0.17,-0.746 -0.501,-1.334 -0.992,-1.764c-0.491,-0.43 -1.085,-0.645 -1.782,-0.645c-0.479,0 -0.905,0.096 -1.278,0.286c-0.373,0.191 -0.688,0.463 -0.943,0.815c-0.256,0.353 -0.45,0.783 -0.584,1.29c-0.134,0.507 -0.201,1.077 -0.201,1.71c0,1.257 0.258,2.225 0.773,2.902c0.515,0.677 1.275,1.016 2.281,1.016c0.811,-0 1.483,-0.219 2.014,-0.657c0.531,-0.438 0.911,-1.091 1.138,-1.959l0.535,-0l0,3.297l-0.572,0l-0.17,-0.961c-0.892,0.722 -1.975,1.083 -3.249,1.083c-0.738,0 -1.407,-0.109 -2.008,-0.328c-0.6,-0.219 -1.111,-0.53 -1.533,-0.931c-0.422,-0.402 -0.748,-0.891 -0.979,-1.467c-0.232,-0.576 -0.347,-1.216 -0.347,-1.922c-0,-0.738 0.121,-1.412 0.365,-2.02c0.243,-0.608 0.586,-1.132 1.028,-1.57c0.442,-0.438 0.969,-0.776 1.582,-1.016c0.612,-0.239 1.292,-0.359 2.038,-0.359c0.495,0 0.957,0.069 1.387,0.207c0.43,0.138 0.897,0.361 1.4,0.669l0.231,-0.754Z" style="fill:url(#_Linear37);fill-rule:nonzero;"/><path d="M55.424,33.463c-0.738,0.835 -1.659,1.253 -2.762,1.253c-0.503,0 -0.959,-0.079 -1.369,-0.237c-0.41,-0.158 -0.761,-0.381 -1.053,-0.669c-0.292,-0.288 -0.519,-0.631 -0.681,-1.029c-0.162,-0.397 -0.243,-0.839 -0.243,-1.326c-0,-0.503 0.085,-0.963 0.255,-1.381c0.171,-0.418 0.412,-0.779 0.724,-1.083c0.312,-0.304 0.682,-0.541 1.107,-0.712c0.426,-0.17 0.895,-0.255 1.406,-0.255c0.86,-0 1.529,0.231 2.008,0.693c0.478,0.463 0.718,1.112 0.718,1.947c-0,0.13 -0.021,0.209 -0.061,0.237c-0.041,0.029 -0.154,0.043 -0.341,0.043l-3.918,-0c-0.033,0.073 -0.049,0.207 -0.049,0.402c0,0.795 0.173,1.423 0.517,1.886c0.345,0.462 0.814,0.693 1.406,0.693c0.34,0 0.679,-0.077 1.016,-0.231c0.336,-0.154 0.663,-0.373 0.979,-0.657l0.341,0.426Zm-2.361,-3.2c0.325,-0 0.534,-0.019 0.627,-0.055c0.093,-0.037 0.14,-0.124 0.14,-0.262c-0,-0.357 -0.101,-0.649 -0.304,-0.876c-0.203,-0.227 -0.459,-0.341 -0.767,-0.341c-0.349,0 -0.659,0.144 -0.931,0.432c-0.271,0.288 -0.448,0.655 -0.529,1.102l1.764,-0Z" style="fill:url(#_Linear38);fill-rule:nonzero;"/><path d="M59.099,32.611c-0,0.333 0.01,0.594 0.03,0.785c0.02,0.19 0.065,0.337 0.134,0.438c0.069,0.101 0.174,0.168 0.316,0.201c0.142,0.032 0.335,0.056 0.578,0.073l0,0.486l-3.833,0l0,-0.486c0.236,-0.017 0.424,-0.041 0.566,-0.073c0.142,-0.033 0.252,-0.098 0.329,-0.195c0.077,-0.097 0.128,-0.235 0.152,-0.414c0.024,-0.178 0.036,-0.422 0.036,-0.73l0,-1.521c0,-0.478 -0.008,-0.866 -0.024,-1.162c-0.016,-0.296 -0.036,-0.497 -0.061,-0.602c-0.024,-0.106 -0.057,-0.193 -0.097,-0.262c-0.041,-0.069 -0.101,-0.122 -0.183,-0.158c-0.081,-0.037 -0.182,-0.061 -0.304,-0.073c-0.122,-0.012 -0.276,-0.018 -0.462,-0.018l-0,-0.414l2.348,-0.462l0.158,1.07l0.049,0c0.268,-0.34 0.584,-0.604 0.949,-0.791c0.365,-0.186 0.767,-0.279 1.205,-0.279c0.519,-0 0.939,0.071 1.259,0.213c0.321,0.142 0.607,0.379 0.858,0.711c0.138,0.187 0.26,0.428 0.365,0.724c0.106,0.297 0.158,0.704 0.158,1.223l0,1.716c0,0.333 0.01,0.594 0.031,0.785c0.02,0.19 0.065,0.337 0.134,0.438c0.069,0.101 0.172,0.168 0.31,0.201c0.138,0.032 0.324,0.056 0.56,0.073l-0,0.486l-3.809,0l0,-0.486c0.243,-0.008 0.436,-0.031 0.578,-0.067c0.142,-0.037 0.249,-0.104 0.322,-0.201c0.073,-0.097 0.122,-0.237 0.146,-0.42c0.025,-0.182 0.037,-0.424 0.037,-0.724l-0,-1.655c-0,-0.413 -0.024,-0.762 -0.073,-1.046c-0.049,-0.284 -0.128,-0.513 -0.237,-0.688c-0.11,-0.174 -0.254,-0.3 -0.432,-0.377c-0.179,-0.077 -0.402,-0.115 -0.67,-0.115c-0.259,-0 -0.482,0.073 -0.669,0.219c-0.186,0.146 -0.349,0.348 -0.487,0.608c-0.073,0.146 -0.135,0.335 -0.188,0.566c-0.053,0.231 -0.079,0.472 -0.079,0.724l-0,1.679Z" style="fill:url(#_Linear39);fill-rule:nonzero;"/><path d="M65.122,28.815l0,-0.548c0.487,-0.138 0.894,-0.347 1.223,-0.627c0.328,-0.28 0.574,-0.602 0.736,-0.967l0.621,-0l-0,1.472l1.399,0l-0,0.67l-1.399,-0l-0,3.735c-0,0.503 0.054,0.86 0.164,1.071c0.109,0.211 0.294,0.316 0.554,0.316c0.316,0 0.555,-0.146 0.717,-0.438l0.256,0.353c-0.227,0.576 -0.763,0.864 -1.606,0.864c-0.56,0 -0.996,-0.13 -1.308,-0.389c-0.313,-0.26 -0.469,-0.625 -0.469,-1.095l0,-4.417l-0.888,-0Z" style="fill:url(#_Linear40);fill-rule:nonzero;"/><path d="M76.037,33.463c-0.738,0.835 -1.659,1.253 -2.762,1.253c-0.503,0 -0.96,-0.079 -1.369,-0.237c-0.41,-0.158 -0.761,-0.381 -1.053,-0.669c-0.292,-0.288 -0.519,-0.631 -0.681,-1.029c-0.162,-0.397 -0.244,-0.839 -0.244,-1.326c0,-0.503 0.086,-0.963 0.256,-1.381c0.17,-0.418 0.412,-0.779 0.724,-1.083c0.312,-0.304 0.681,-0.541 1.107,-0.712c0.426,-0.17 0.895,-0.255 1.406,-0.255c0.86,-0 1.529,0.231 2.007,0.693c0.479,0.463 0.718,1.112 0.718,1.947c0,0.13 -0.02,0.209 -0.061,0.237c-0.04,0.029 -0.154,0.043 -0.34,0.043l-3.918,-0c-0.033,0.073 -0.049,0.207 -0.049,0.402c-0,0.795 0.172,1.423 0.517,1.886c0.345,0.462 0.813,0.693 1.406,0.693c0.34,0 0.679,-0.077 1.016,-0.231c0.336,-0.154 0.663,-0.373 0.979,-0.657l0.341,0.426Zm-2.361,-3.2c0.325,-0 0.534,-0.019 0.627,-0.055c0.093,-0.037 0.14,-0.124 0.14,-0.262c-0,-0.357 -0.102,-0.649 -0.304,-0.876c-0.203,-0.227 -0.459,-0.341 -0.767,-0.341c-0.349,0 -0.659,0.144 -0.931,0.432c-0.272,0.288 -0.448,0.655 -0.529,1.102l1.764,-0Z" style="fill:url(#_Linear41);fill-rule:nonzero;"/><path d="M79.724,32.708c-0,0.317 0.014,0.566 0.042,0.749c0.029,0.182 0.088,0.322 0.177,0.419c0.089,0.098 0.219,0.161 0.389,0.189c0.171,0.028 0.398,0.043 0.682,0.043l-0,0.486l-4.065,0l0,-0.486c0.244,-0.017 0.438,-0.041 0.584,-0.073c0.147,-0.033 0.256,-0.098 0.329,-0.195c0.073,-0.097 0.12,-0.237 0.14,-0.42c0.02,-0.182 0.03,-0.428 0.03,-0.736l0,-1.484c0,-0.503 -0.012,-0.905 -0.036,-1.205c-0.024,-0.3 -0.077,-0.531 -0.158,-0.694c-0.081,-0.162 -0.197,-0.269 -0.347,-0.322c-0.15,-0.053 -0.347,-0.079 -0.59,-0.079l-0,-0.426l2.433,-0.45l0.195,1.399l0.049,-0c0.219,-0.43 0.507,-0.771 0.864,-1.022c0.357,-0.252 0.734,-0.377 1.131,-0.377c0.309,-0 0.56,0.077 0.755,0.231c0.194,0.154 0.292,0.349 0.292,0.584c-0,0.259 -0.075,0.479 -0.225,0.657c-0.15,0.178 -0.355,0.268 -0.615,0.268c-0.122,-0 -0.231,-0.025 -0.328,-0.073c-0.098,-0.049 -0.185,-0.104 -0.262,-0.165c-0.077,-0.06 -0.154,-0.117 -0.231,-0.17c-0.077,-0.053 -0.156,-0.079 -0.237,-0.079c-0.155,-0 -0.301,0.101 -0.439,0.304c-0.137,0.203 -0.251,0.475 -0.34,0.815c-0.065,0.244 -0.118,0.518 -0.158,0.822c-0.041,0.304 -0.061,0.606 -0.061,0.906l-0,0.584Z" style="fill:url(#_Linear42);fill-rule:nonzero;"/></g><path d="M34.195,34.817l-34.022,-0l0,-34.022l34.022,0c-0,0 0.066,8.198 -0,8.158c-1.235,-0.74 -2.107,-0.848 -3.313,-1.433c-1.429,-0.693 -2.452,-0.996 -2.997,-0.833c1.053,0.024 1.682,0.499 1.806,0.586c-2.928,-0.728 -4.86,-1.81 -6.367,-1.688c-0.314,-0.678 -0.25,-2.582 -2.07,-3.12c-0.508,-0.15 -0.391,0.232 -0.391,0.232l0.088,0.876l-0.443,2.049c0,-0 -0.794,-0.167 -1.126,-0.859c0.081,0.574 0.699,0.91 0.794,0.957c-0.901,0.036 -1.759,0.221 -1.759,0.221c0,-0 -1.315,-1.087 -2.246,-1.714c-0.546,-0.368 -1.087,-1.451 -1.371,-1.745c-0.077,-0.079 -0.414,-0.071 -0.452,0.036c-0.067,0.191 -0.051,0.754 0.05,1.11c-0.316,1.733 1.645,4.805 1.645,4.805c0,-0 -0.454,1.212 -1.69,1.655c0.744,-0.126 1.312,-0.608 1.312,-0.608c0,0 -0.57,0.867 -0.929,1.844c-0.36,0.338 -1.522,0.624 -1.522,0.624c-0,-0 0.622,0.25 1.329,0.052c-0.345,0.555 -0.964,1.974 -1.999,2.098c0.617,0.154 1.362,-0.487 1.362,-0.487c-0,0 -0.127,0.237 -0.227,0.381c-0.16,0.23 -0.382,0.56 -0.263,1.049c0.016,0.062 -0.13,0.084 -0.408,-0.044c0.095,0.201 0.385,0.24 0.499,0.277c0.169,0.389 0.196,1.433 0.196,1.572c-0.314,0.936 -1.063,3.242 -1.768,4.471c-0.518,0.906 -1.008,2.443 -1.556,3.321c-0.426,0.683 -0.89,1.605 -1.033,2.055c-0.06,0.187 0.157,0.422 0.172,0.644c0.02,0.318 -0.086,0.809 -0.026,1.112c0.247,1.242 0.787,1.983 1.13,2.549c0.353,0.582 0.815,0.513 1.272,0.642c0.256,0.623 2.267,0.774 2.977,0.561c0.394,-0.119 0.911,-0.647 1.174,-0.998c0.235,-0.315 0.283,-0.859 0.473,-1.036c0.162,-0.152 0.679,-0.307 0.679,-0.307l0.445,-0.497l1.571,-0.931l0.439,-0.489l0.62,-0.247l0.412,-0.457l1.117,-0.815c-0,-0 0.174,-0.648 0.436,-0.652c0.922,-0.014 1.861,-0.33 3.088,-1.344c1.32,1.099 3.58,3.589 5.053,5.325c2.016,2.376 3.817,5.064 3.817,5.064Z" style="fill:url(#_Linear43);"/></g></g><defs><linearGradient id="_Linear2" x1="0" y1="0" x2="1" y2="0" gradientUnits="userSpaceOnUse" gradientTransform="matrix(6.38381,6.38381,-1.67993,1.67993,0.0468721,-4.98388)"><stop offset="0" style="stop-color:#fe7177;stop-opacity:1"/><stop offset="1" style="stop-color:#ffb84b;stop-opacity:1"/></linearGradient><linearGradient id="_Linear3" x1="0" y1="0" x2="1" y2="0" gradientUnits="userSpaceOnUse" gradientTransform="matrix(6.38381,6.38381,-1.67993,1.67993,-0.477128,-4.98388)"><stop offset="0" style="stop-color:#fe7177;stop-opacity:1"/><stop offset="1" style="stop-color:#ffb84b;stop-opacity:1"/></linearGradient><linearGradient id="_Linear4" x1="0" y1="0" x2="1" y2="0" gradientUnits="userSpaceOnUse" gradientTransform="matrix(6.38381,6.38381,-1.67993,1.67993,-0.955128,-4.98388)"><stop offset="0" style="stop-color:#fe7177;stop-opacity:1"/><stop offset="1" style="stop-color:#ffb84b;stop-opacity:1"/></linearGradient><linearGradient id="_Linear5" x1="0" y1="0" x2="1" y2="0" gradientUnits="userSpaceOnUse" gradientTransform="matrix(6.38381,6.38381,-1.67993,1.67993,-1.29513,-4.98388)"><stop offset="0" style="stop-color:#fe7177;stop-opacity:1"/><stop offset="1" style="stop-color:#ffb84b;stop-opacity:1"/></linearGradient><linearGradient id="_Linear6" x1="0" y1="0" x2="1" y2="0" gradientUnits="userSpaceOnUse" gradientTransform="matrix(6.38381,6.38381,-1.67993,1.67993,-1.85013,-4.98388)"><stop offset="0" style="stop-color:#fe7177;stop-opacity:1"/><stop offset="1" style="stop-color:#ffb84b;stop-opacity:1"/></linearGradient><linearGradient id="_Linear7" x1="0" y1="0" x2="1" y2="0" gradientUnits="userSpaceOnUse" gradientTransform="matrix(6.38381,6.38381,-1.67993,1.67993,-2.45213,-4.98388)"><stop offset="0" style="stop-color:#fe7177;stop-opacity:1"/><stop offset="1" style="stop-color:#ffb84b;stop-opacity:1"/></linearGradient><linearGradient id="_Linear8" x1="0" y1="0" x2="1" y2="0" gradientUnits="userSpaceOnUse" gradientTransform="matrix(6.38381,6.38381,-1.67993,1.67993,-2.66413,-4.98388)"><stop offset="0" style="stop-color:#fe7177;stop-opacity:1"/><stop offset="1" style="stop-color:#ffb84b;stop-opacity:1"/></linearGradient><linearGradient id="_Linear9" x1="0" y1="0" x2="1" y2="0" gradientUnits="userSpaceOnUse" gradientTransform="matrix(6.38381,6.38381,-1.67993,1.67993,-2.87613,-4.98388)"><stop offset="0" style="stop-color:#fe7177;stop-opacity:1"/><stop offset="1" style="stop-color:#ffb84b;stop-opacity:1"/></linearGradient><linearGradient id="_Linear10" x1="0" y1="0" x2="1" y2="0" gradientUnits="userSpaceOnUse" gradientTransform="matrix(6.38381,6.38381,-1.67993,1.67993,-3.37113,-4.98388)"><stop offset="0" style="stop-color:#fe7177;stop-opacity:1"/><stop offset="1" style="stop-color:#ffb84b;stop-opacity:1"/></linearGradient><linearGradient id="_Linear11" x1="0" y1="0" x2="1" y2="0" gradientUnits="userSpaceOnUse" gradientTransform="matrix(6.38381,6.38381,-1.67993,1.67993,-3.94013,-4.98388)"><stop offset="0" style="stop-color:#fe7177;stop-opacity:1"/><stop offset="1" style="stop-color:#ffb84b;stop-opacity:1"/></linearGradient><linearGradient id="_Linear12" x1="0" y1="0" x2="1" y2="0" gradientUnits="userSpaceOnUse" gradientTransform="matrix(6.38381,6.38381,-1.67993,1.67993,-4.49713,-4.98388)"><stop offset="0" style="stop-color:#fe7177;stop-opacity:1"/><stop offset="1" style="stop-color:#ffb84b;stop-opacity:1"/></linearGradient><linearGradient id="_Linear13" x1="0" y1="0" x2="1" y2="0" gradientUnits="userSpaceOnUse" gradientTransform="matrix(6.38381,6.38381,-1.67993,1.67993,-5.40613,-4.98388)"><stop offset="0" style="stop-color:#fe7177;stop-opacity:1"/><stop offset="1" style="stop-color:#ffb84b;stop-opacity:1"/></linearGradient><linearGradient id="_Linear14" x1="0" y1="0" x2="1" y2="0" gradientUnits="userSpaceOnUse" gradientTransform="matrix(6.38381,6.38381,-1.67993,1.67993,-5.61813,-4.98388)"><stop offset="0" style="stop-color:#fe7177;stop-opacity:1"/><stop offset="1" style="stop-color:#ffb84b;stop-opacity:1"/></linearGradient><linearGradient id="_Linear15" x1="0" y1="0" x2="1" y2="0" gradientUnits="userSpaceOnUse" gradientTransform="matrix(6.38381,6.38381,-1.67993,1.67993,-6.49413,-4.98388)"><stop offset="0" style="stop-color:#fe7177;stop-opacity:1"/><stop offset="1" style="stop-color:#ffb84b;stop-opacity:1"/></linearGradient><linearGradient id="_Linear16" x1="0" y1="0" x2="1" y2="0" gradientUnits="userSpaceOnUse" gradientTransform="matrix(6.38381,6.38381,-1.67993,1.67993,-7.14413,-4.98388)"><stop offset="0" style="stop-color:#fe7177;stop-opacity:1"/><stop offset="1" style="stop-color:#ffb84b;stop-opacity:1"/></linearGradient><linearGradient id="_Linear17" x1="0" y1="0" x2="1" y2="0" gradientUnits="userSpaceOnUse" gradientTransform="matrix(6.38381,6.38381,-1.67993,1.67993,-7.79413,-4.98388)"><stop offset="0" style="stop-color:#fe7177;stop-opacity:1"/><stop offset="1" style="stop-color:#ffb84b;stop-opacity:1"/></linearGradient><linearGradient id="_Linear18" x1="0" y1="0" x2="1" y2="0" gradientUnits="userSpaceOnUse" gradientTransform="matrix(6.38381,6.38381,-1.67993,1.67993,-8.44413,-4.98388)"><stop offset="0" style="stop-color:#fe7177;stop-opacity:1"/><stop offset="1" style="stop-color:#ffb84b;stop-opacity:1"/></linearGradient><linearGradient id="_Linear19" x1="0" y1="0" x2="1" y2="0" gradientUnits="userSpaceOnUse" gradientTransform="matrix(57.42,57.42,-15.1103,15.1103,-0.188975,0.19589)"><stop offset="0" style="stop-color:#fe7177;stop-opacity:1"/><stop offset="1" style="stop-color:#ffb84b;stop-opacity:1"/></linearGradient><linearGradient id="_Linear20" x1="0" y1="0" x2="1" y2="0" gradientUnits="userSpaceOnUse" gradientTransform="matrix(57.42,57.42,-15.1103,15.1103,-0.188975,0.19589)"><stop offset="0" style="stop-color:#fe7177;stop-opacity:1"/><stop offset="1" style="stop-color:#ffb84b;stop-opacity:1"/></linearGradient><linearGradient id="_Linear21" x1="0" y1="0" x2="1" y2="0" gradientUnits="userSpaceOnUse" gradientTransform="matrix(57.42,57.42,-15.1103,15.1103,-0.188975,0.19589)"><stop offset="0" style="stop-color:#fe7177;stop-opacity:1"/><stop offset="1" style="stop-color:#ffb84b;stop-opacity:1"/></linearGradient><linearGradient id="_Linear22" x1="0" y1="0" x2="1" y2="0" gradientUnits="userSpaceOnUse" gradientTransform="matrix(57.42,57.42,-15.1103,15.1103,-0.188975,0.19589)"><stop offset="0" style="stop-color:#fe7177;stop-opacity:1"/><stop offset="1" style="stop-color:#ffb84b;stop-opacity:1"/></linearGradient><linearGradient id="_Linear23" x1="0" y1="0" x2="1" y2="0" gradientUnits="userSpaceOnUse" gradientTransform="matrix(57.42,57.42,-15.1103,15.1103,-0.188975,0.19589)"><stop offset="0" style="stop-color:#fe7177;stop-opacity:1"/><stop offset="1" style="stop-color:#ffb84b;stop-opacity:1"/></linearGradient><linearGradient id="_Linear24" x1="0" y1="0" x2="1" y2="0" gradientUnits="userSpaceOnUse" gradientTransform="matrix(57.42,57.42,-15.1103,15.1103,-0.188975,0.19589)"><stop offset="0" style="stop-color:#fe7177;stop-opacity:1"/><stop offset="1" style="stop-color:#ffb84b;stop-opacity:1"/></linearGradient><linearGradient id="_Linear25" x1="0" y1="0" x2="1" y2="0" gradientUnits="userSpaceOnUse" gradientTransform="matrix(57.42,57.42,-15.1103,15.1103,-0.188975,0.19589)"><stop offset="0" style="stop-color:#fe7177;stop-opacity:1"/><stop offset="1" style="stop-color:#ffb84b;stop-opacity:1"/></linearGradient><linearGradient id="_Linear26" x1="0" y1="0" x2="1" y2="0" gradientUnits="userSpaceOnUse" gradientTransform="matrix(57.42,57.42,-15.1103,15.1103,-0.188975,0.19589)"><stop offset="0" style="stop-color:#fe7177;stop-opacity:1"/><stop offset="1" style="stop-color:#ffb84b;stop-opacity:1"/></linearGradient><linearGradient id="_Linear27" x1="0" y1="0" x2="1" y2="0" gradientUnits="userSpaceOnUse" gradientTransform="matrix(57.42,57.42,-15.1103,15.1103,-0.188975,0.19589)"><stop offset="0" style="stop-color:#fe7177;stop-opacity:1"/><stop offset="1" style="stop-color:#ffb84b;stop-opacity:1"/></linearGradient><linearGradient id="_Linear28" x1="0" y1="0" x2="1" y2="0" gradientUnits="userSpaceOnUse" gradientTransform="matrix(57.42,57.42,-15.1103,15.1103,-0.188975,0.19589)"><stop offset="0" style="stop-color:#fe7177;stop-opacity:1"/><stop offset="1" style="stop-color:#ffb84b;stop-opacity:1"/></linearGradient><linearGradient id="_Linear29" x1="0" y1="0" x2="1" y2="0" gradientUnits="userSpaceOnUse" gradientTransform="matrix(57.42,57.42,-15.1103,15.1103,-0.188975,0.19589)"><stop offset="0" style="stop-color:#fe7177;stop-opacity:1"/><stop offset="1" style="stop-color:#ffb84b;stop-opacity:1"/></linearGradient><linearGradient id="_Linear30" x1="0" y1="0" x2="1" y2="0" gradientUnits="userSpaceOnUse" gradientTransform="matrix(57.42,57.42,-15.1103,15.1103,-0.188975,0.19589)"><stop offset="0" style="stop-color:#fe7177;stop-opacity:1"/><stop offset="1" style="stop-color:#ffb84b;stop-opacity:1"/></linearGradient><linearGradient id="_Linear31" x1="0" y1="0" x2="1" y2="0" gradientUnits="userSpaceOnUse" gradientTransform="matrix(57.42,57.42,-15.1103,15.1103,-0.188975,0.19589)"><stop offset="0" style="stop-color:#fe7177;stop-opacity:1"/><stop offset="1" style="stop-color:#ffb84b;stop-opacity:1"/></linearGradient><linearGradient id="_Linear32" x1="0" y1="0" x2="1" y2="0" gradientUnits="userSpaceOnUse" gradientTransform="matrix(57.42,57.42,-15.1103,15.1103,-0.188975,0.19589)"><stop offset="0" style="stop-color:#fe7177;stop-opacity:1"/><stop offset="1" style="stop-color:#ffb84b;stop-opacity:1"/></linearGradient><linearGradient id="_Linear33" x1="0" y1="0" x2="1" y2="0" gradientUnits="userSpaceOnUse" gradientTransform="matrix(57.42,57.42,-15.1103,15.1103,-0.188975,0.19589)"><stop offset="0" style="stop-color:#fe7177;stop-opacity:1"/><stop offset="1" style="stop-color:#ffb84b;stop-opacity:1"/></linearGradient><linearGradient id="_Linear34" x1="0" y1="0" x2="1" y2="0" gradientUnits="userSpaceOnUse" gradientTransform="matrix(57.42,57.42,-15.1103,15.1103,-0.188975,0.19589)"><stop offset="0" style="stop-color:#fe7177;stop-opacity:1"/><stop offset="1" style="stop-color:#ffb84b;stop-opacity:1"/></linearGradient><linearGradient id="_Linear35" x1="0" y1="0" x2="1" y2="0" gradientUnits="userSpaceOnUse" gradientTransform="matrix(57.42,57.42,-15.1103,15.1103,-0.188975,0.19589)"><stop offset="0" style="stop-color:#fe7177;stop-opacity:1"/><stop offset="1" style="stop-color:#ffb84b;stop-opacity:1"/></linearGradient><linearGradient id="_Linear36" x1="0" y1="0" x2="1" y2="0" gradientUnits="userSpaceOnUse" gradientTransform="matrix(57.42,57.42,-15.1103,15.1103,-0.188975,0.19589)"><stop offset="0" style="stop-color:#fe7177;stop-opacity:1"/><stop offset="1" style="stop-color:#ffb84b;stop-opacity:1"/></linearGradient><linearGradient id="_Linear37" x1="0" y1="0" x2="1" y2="0" gradientUnits="userSpaceOnUse" gradientTransform="matrix(57.42,57.42,-15.1103,15.1103,-0.188975,0.19589)"><stop offset="0" style="stop-color:#fe7177;stop-opacity:1"/><stop offset="1" style="stop-color:#ffb84b;stop-opacity:1"/></linearGradient><linearGradient id="_Linear38" x1="0" y1="0" x2="1" y2="0" gradientUnits="userSpaceOnUse" gradientTransform="matrix(57.42,57.42,-15.1103,15.1103,-0.188975,0.19589)"><stop offset="0" style="stop-color:#fe7177;stop-opacity:1"/><stop offset="1" style="stop-color:#ffb84b;stop-opacity:1"/></linearGradient><linearGradient id="_Linear39" x1="0" y1="0" x2="1" y2="0" gradientUnits="userSpaceOnUse" gradientTransform="matrix(57.42,57.42,-15.1103,15.1103,-0.188975,0.19589)"><stop offset="0" style="stop-color:#fe7177;stop-opacity:1"/><stop offset="1" style="stop-color:#ffb84b;stop-opacity:1"/></linearGradient><linearGradient id="_Linear40" x1="0" y1="0" x2="1" y2="0" gradientUnits="userSpaceOnUse" gradientTransform="matrix(57.42,57.42,-15.1103,15.1103,-0.188975,0.19589)"><stop offset="0" style="stop-color:#fe7177;stop-opacity:1"/><stop offset="1" style="stop-color:#ffb84b;stop-opacity:1"/></linearGradient><linearGradient id="_Linear41" x1="0" y1="0" x2="1" y2="0" gradientUnits="userSpaceOnUse" gradientTransform="matrix(57.42,57.42,-15.1103,15.1103,-0.188975,0.19589)"><stop offset="0" style="stop-color:#fe7177;stop-opacity:1"/><stop offset="1" style="stop-color:#ffb84b;stop-opacity:1"/></linearGradient><linearGradient id="_Linear42" x1="0" y1="0" x2="1" y2="0" gradientUnits="userSpaceOnUse" gradientTransform="matrix(57.42,57.42,-15.1103,15.1103,-0.188975,0.19589)"><stop offset="0" style="stop-color:#fe7177;stop-opacity:1"/><stop offset="1" style="stop-color:#ffb84b;stop-opacity:1"/></linearGradient><linearGradient id="_Linear43" x1="0" y1="0" x2="1" y2="0" gradientUnits="userSpaceOnUse" gradientTransform="matrix(56.9428,56.9428,-14.9847,14.9847,-0.118597,0.417248)"><stop offset="0" style="stop-color:#fe7177;stop-opacity:1"/><stop offset="1" style="stop-color:#ffb84b;stop-opacity:1"/></linearGradient></defs></svg>