<?xml version="1.0" encoding="UTF-8" standalone="no"?><!DOCTYPE svg PUBLIC "-//W3C//DTD SVG 1.1//EN" "http://www.w3.org/Graphics/SVG/1.1/DTD/svg11.dtd"><svg width="100%" height="100%" viewBox="0 0 299 46" version="1.1" xmlns="http://www.w3.org/2000/svg" xmlns:xlink="http://www.w3.org/1999/xlink" xml:space="preserve" xmlns:serif="http://www.serif.com/" style="fill-rule:evenodd;clip-rule:evenodd;stroke-linejoin:round;stroke-miterlimit:2;"><rect id="Artboard1" x="0" y="0" width="298.69" height="45.826" style="fill:none;"/><g><path d="M24.781,16.528l0,12.082c0,3.334 -2.707,6.041 -6.041,6.041l-12.081,-0c-3.334,-0 -6.041,-2.707 -6.041,-6.041l0,-12.082c0,-3.334 2.707,-6.04 6.041,-6.04l12.081,-0c3.334,-0 6.041,2.706 6.041,6.04Z" style="fill:#ff333f;"/><path d="M53.768,16.528l-0,12.082c-0,3.334 -2.707,6.041 -6.041,6.041l-12.082,-0c-3.334,-0 -6.041,-2.707 -6.041,-6.041l0,-12.082c0,-3.334 2.707,-6.04 6.041,-6.04l12.082,-0c3.334,-0 6.041,2.706 6.041,6.04Z" style="fill:#ff333f;"/><path d="M83.246,16.528l0,12.082c0,3.334 -2.707,6.041 -6.041,6.041l-12.081,-0c-3.334,-0 -6.041,-2.707 -6.041,-6.041l0,-12.082c0,-3.334 2.707,-6.04 6.041,-6.04l12.081,-0c3.334,-0 6.041,2.706 6.041,6.04Z" style="fill:#ff333f;"/><path d="M112.791,16.528l0,12.082c0,3.334 -2.707,6.041 -6.041,6.041l-12.081,-0c-3.334,-0 -6.041,-2.707 -6.041,-6.041l0,-12.082c0,-3.334 2.707,-6.04 6.041,-6.04l12.081,-0c3.334,-0 6.041,2.706 6.041,6.04Z" style="fill:#ff333f;"/><path d="M142.324,16.528l0,12.082c0,3.334 -2.706,6.041 -6.04,6.041l-12.082,-0c-3.334,-0 -6.041,-2.707 -6.041,-6.041l0,-12.082c0,-3.334 2.707,-6.04 6.041,-6.04l12.082,-0c3.334,-0 6.04,2.706 6.04,6.04Z" style="fill:#ff333f;"/><path d="M11.822,13.895c0.166,-0.333 0.506,-0.542 0.878,-0.542c0.371,-0 0.711,0.209 0.877,0.542l2.157,4.307c0.097,0.194 0.239,0.362 0.415,0.489c0.175,0.128 0.378,0.211 0.593,0.243l4.763,0.721c0.367,0.055 0.672,0.313 0.787,0.667c0.115,0.353 0.02,0.741 -0.245,1.002l-3.43,3.382c-0.154,0.153 -0.27,0.34 -0.337,0.546c-0.067,0.206 -0.083,0.425 -0.048,0.639l0.787,4.753c0.061,0.366 -0.091,0.736 -0.391,0.954c-0.301,0.218 -0.699,0.248 -1.029,0.077l-4.277,-2.217c-0.192,-0.1 -0.406,-0.152 -0.622,-0.152c-0.217,0 -0.431,0.052 -0.623,0.152l-4.277,2.217c-0.33,0.171 -0.728,0.141 -1.029,-0.077c-0.3,-0.218 -0.452,-0.588 -0.391,-0.954l0.787,-4.753c0.035,-0.214 0.019,-0.433 -0.048,-0.639c-0.067,-0.206 -0.183,-0.393 -0.337,-0.546l-3.43,-3.382c-0.265,-0.261 -0.36,-0.649 -0.245,-1.002c0.115,-0.354 0.42,-0.612 0.787,-0.667l4.764,-0.721c0.214,-0.032 0.417,-0.115 0.593,-0.243c0.175,-0.127 0.317,-0.295 0.414,-0.489l2.157,-4.307Z" style="fill:#fff;"/><path d="M40.808,13.895c0.167,-0.333 0.506,-0.542 0.878,-0.542c0.372,-0 0.711,0.209 0.878,0.542l2.157,4.307c0.097,0.194 0.239,0.362 0.414,0.489c0.175,0.128 0.379,0.211 0.593,0.243l4.764,0.721c0.367,0.055 0.671,0.313 0.786,0.667c0.115,0.353 0.02,0.741 -0.244,1.002l-3.431,3.382c-0.154,0.153 -0.269,0.34 -0.336,0.546c-0.067,0.206 -0.084,0.425 -0.048,0.639l0.787,4.753c0.06,0.366 -0.091,0.736 -0.392,0.954c-0.3,0.218 -0.698,0.248 -1.028,0.077l-4.277,-2.217c-0.193,-0.1 -0.406,-0.152 -0.623,-0.152c-0.217,0 -0.43,0.052 -0.623,0.152l-4.277,2.217c-0.33,0.171 -0.728,0.141 -1.028,-0.077c-0.301,-0.218 -0.452,-0.588 -0.392,-0.954l0.787,-4.753c0.036,-0.214 0.019,-0.433 -0.048,-0.639c-0.067,-0.206 -0.182,-0.393 -0.336,-0.546l-3.431,-3.382c-0.264,-0.261 -0.359,-0.649 -0.244,-1.002c0.115,-0.354 0.419,-0.612 0.786,-0.667l4.764,-0.721c0.214,-0.032 0.418,-0.115 0.593,-0.243c0.175,-0.127 0.317,-0.295 0.414,-0.489l2.157,-4.307Z" style="fill:#fff;"/><path d="M70.287,13.895c0.166,-0.333 0.506,-0.542 0.878,-0.542c0.371,-0 0.711,0.209 0.877,0.542l2.157,4.307c0.097,0.194 0.239,0.362 0.415,0.489c0.175,0.128 0.378,0.211 0.593,0.243l4.763,0.721c0.368,0.055 0.672,0.313 0.787,0.667c0.115,0.353 0.02,0.741 -0.244,1.002l-3.431,3.382c-0.154,0.153 -0.27,0.34 -0.337,0.546c-0.067,0.206 -0.083,0.425 -0.048,0.639l0.787,4.753c0.061,0.366 -0.09,0.736 -0.391,0.954c-0.301,0.218 -0.699,0.248 -1.029,0.077l-4.277,-2.217c-0.192,-0.1 -0.406,-0.152 -0.622,-0.152c-0.217,0 -0.431,0.052 -0.623,0.152l-4.277,2.217c-0.33,0.171 -0.728,0.141 -1.029,-0.077c-0.3,-0.218 -0.452,-0.588 -0.391,-0.954l0.787,-4.753c0.035,-0.214 0.019,-0.433 -0.048,-0.639c-0.067,-0.206 -0.182,-0.393 -0.337,-0.546l-3.43,-3.382c-0.265,-0.261 -0.359,-0.649 -0.245,-1.002c0.115,-0.354 0.42,-0.612 0.787,-0.667l4.764,-0.721c0.214,-0.032 0.417,-0.115 0.593,-0.243c0.175,-0.127 0.317,-0.295 0.414,-0.489l2.157,-4.307Z" style="fill:#fff;"/><path d="M99.832,13.895c0.166,-0.333 0.506,-0.542 0.878,-0.542c0.371,-0 0.711,0.209 0.877,0.542l2.157,4.307c0.097,0.194 0.239,0.362 0.415,0.489c0.175,0.128 0.378,0.211 0.593,0.243l4.763,0.721c0.368,0.055 0.672,0.313 0.787,0.667c0.115,0.353 0.02,0.741 -0.244,1.002l-3.431,3.382c-0.154,0.153 -0.27,0.34 -0.337,0.546c-0.067,0.206 -0.083,0.425 -0.048,0.639l0.787,4.753c0.061,0.366 -0.09,0.736 -0.391,0.954c-0.301,0.218 -0.699,0.248 -1.029,0.077l-4.277,-2.217c-0.192,-0.1 -0.406,-0.152 -0.622,-0.152c-0.217,0 -0.431,0.052 -0.623,0.152l-4.277,2.217c-0.33,0.171 -0.728,0.141 -1.029,-0.077c-0.3,-0.218 -0.452,-0.588 -0.391,-0.954l0.787,-4.753c0.035,-0.214 0.019,-0.433 -0.048,-0.639c-0.067,-0.206 -0.182,-0.393 -0.337,-0.546l-3.43,-3.382c-0.265,-0.261 -0.359,-0.649 -0.245,-1.002c0.115,-0.354 0.42,-0.612 0.787,-0.667l4.764,-0.721c0.214,-0.032 0.417,-0.115 0.593,-0.243c0.175,-0.127 0.317,-0.295 0.414,-0.489l2.157,-4.307Z" style="fill:#fff;"/><path d="M129.365,13.895c0.167,-0.333 0.506,-0.542 0.878,-0.542c0.371,-0 0.711,0.209 0.877,0.542l2.157,4.307c0.097,0.194 0.24,0.362 0.415,0.489c0.175,0.128 0.379,0.211 0.593,0.243l4.763,0.721c0.368,0.055 0.672,0.313 0.787,0.667c0.115,0.353 0.02,0.741 -0.244,1.002l-3.431,3.382c-0.154,0.153 -0.269,0.34 -0.336,0.546c-0.067,0.206 -0.084,0.425 -0.048,0.639l0.787,4.753c0.06,0.366 -0.091,0.736 -0.392,0.954c-0.3,0.218 -0.698,0.248 -1.028,0.077l-4.277,-2.217c-0.193,-0.1 -0.406,-0.152 -0.623,-0.152c-0.217,0 -0.43,0.052 -0.623,0.152l-4.277,2.217c-0.33,0.171 -0.728,0.141 -1.028,-0.077c-0.301,-0.218 -0.452,-0.588 -0.392,-0.954l0.787,-4.753c0.036,-0.214 0.019,-0.433 -0.048,-0.639c-0.067,-0.206 -0.182,-0.393 -0.336,-0.546l-3.431,-3.382c-0.265,-0.261 -0.359,-0.649 -0.244,-1.002c0.114,-0.354 0.419,-0.612 0.786,-0.667l4.764,-0.721c0.214,-0.032 0.418,-0.115 0.593,-0.243c0.175,-0.127 0.317,-0.295 0.414,-0.489l2.157,-4.307Z" style="fill:#fff;"/><path d="M275.066,26.756l1.91,-0.441c0.04,-0.01 0.106,-0.025 0.187,-0.051c0.527,-0.142 0.979,-0.483 1.26,-0.951c0.281,-0.468 0.37,-1.027 0.247,-1.558c-0.003,-0.012 -0.005,-0.023 -0.008,-0.035c-0.063,-0.255 -0.172,-0.496 -0.324,-0.71c-0.214,-0.272 -0.479,-0.499 -0.779,-0.669c-0.355,-0.202 -0.725,-0.373 -1.108,-0.513l-2.094,-0.764c-1.175,-0.437 -2.35,-0.863 -3.536,-1.278c-0.769,-0.274 -1.421,-0.514 -1.987,-0.689c-0.107,-0.033 -0.225,-0.066 -0.321,-0.099c-0.684,-0.21 -1.165,-0.297 -1.572,-0.3c-0.272,-0.01 -0.543,0.04 -0.794,0.145c-0.261,0.113 -0.496,0.279 -0.689,0.489c-0.096,0.109 -0.186,0.223 -0.27,0.342c-0.079,0.12 -0.151,0.245 -0.217,0.374c-0.072,0.137 -0.134,0.28 -0.185,0.427c-0.389,1.149 -0.583,2.354 -0.573,3.567c0.007,1.096 0.036,2.503 0.639,3.457c0.145,0.244 0.34,0.456 0.572,0.621c0.429,0.296 0.863,0.335 1.314,0.367c0.674,0.049 1.328,-0.117 1.979,-0.267l6.344,-1.466l0.005,0.002Z" style="fill:#ff1a1a;fill-rule:nonzero;"/><path d="M296.371,16.617c-0.522,-1.094 -1.223,-2.093 -2.074,-2.955c-0.11,-0.109 -0.228,-0.211 -0.353,-0.303c-0.115,-0.086 -0.235,-0.167 -0.359,-0.241c-0.127,-0.07 -0.258,-0.132 -0.392,-0.188c-0.265,-0.104 -0.549,-0.151 -0.833,-0.138c-0.272,0.016 -0.537,0.09 -0.777,0.218c-0.364,0.181 -0.758,0.472 -1.282,0.96c-0.073,0.072 -0.164,0.153 -0.245,0.229c-0.433,0.407 -0.914,0.908 -1.486,1.492c-0.885,0.893 -1.756,1.792 -2.621,2.7l-1.549,1.606c-0.283,0.294 -0.541,0.61 -0.771,0.948c-0.196,0.284 -0.335,0.605 -0.409,0.943c-0.042,0.259 -0.036,0.524 0.019,0.78c0.002,0.012 0.005,0.023 0.008,0.035c0.122,0.532 0.446,0.995 0.903,1.293c0.457,0.297 1.012,0.406 1.548,0.302c0.084,-0.012 0.15,-0.027 0.19,-0.037l8.257,-1.908c0.65,-0.15 1.311,-0.288 1.895,-0.627c0.392,-0.227 0.765,-0.453 1.021,-0.907c0.137,-0.25 0.22,-0.526 0.243,-0.81c0.127,-1.125 -0.461,-2.403 -0.933,-3.392Z" style="fill:#ff1a1a;fill-rule:nonzero;"/><path d="M281.593,20.089c0.598,-0.751 0.597,-1.872 0.65,-2.787c0.18,-3.061 0.37,-6.121 0.52,-9.183c0.058,-1.16 0.183,-2.304 0.114,-3.472c-0.057,-0.964 -0.064,-2.071 -0.673,-2.862c-1.074,-1.395 -3.365,-1.281 -4.928,-1.064c-0.479,0.066 -0.959,0.155 -1.435,0.27c-0.475,0.114 -0.946,0.239 -1.407,0.386c-1.5,0.492 -3.609,1.393 -3.966,3.122c-0.201,0.977 0.276,1.976 0.646,2.868c0.448,1.081 1.061,2.054 1.62,3.072c1.476,2.686 2.979,5.355 4.479,8.027c0.448,0.798 0.936,1.808 1.802,2.222c0.057,0.025 0.116,0.047 0.175,0.066c0.389,0.147 0.812,0.175 1.217,0.081c0.024,-0.005 0.048,-0.011 0.072,-0.016c0.374,-0.102 0.712,-0.305 0.978,-0.588c0.047,-0.044 0.093,-0.092 0.136,-0.142Z" style="fill:#ff1a1a;fill-rule:nonzero;"/><path d="M280.877,28.282c-0.234,-0.328 -0.565,-0.575 -0.947,-0.703c-0.382,-0.129 -0.795,-0.133 -1.18,-0.013c-0.09,0.03 -0.178,0.066 -0.263,0.109c-0.132,0.067 -0.257,0.145 -0.375,0.234c-0.345,0.255 -0.634,0.586 -0.898,0.918c-0.067,0.085 -0.128,0.198 -0.208,0.27l-1.328,1.827c-0.753,1.024 -1.495,2.05 -2.231,3.092c-0.48,0.673 -0.896,1.241 -1.224,1.744c-0.062,0.094 -0.127,0.2 -0.186,0.284c-0.393,0.609 -0.616,1.053 -0.73,1.449c-0.086,0.263 -0.113,0.541 -0.08,0.815c0.037,0.286 0.133,0.561 0.283,0.807c0.079,0.124 0.165,0.243 0.257,0.358c0.095,0.111 0.196,0.216 0.303,0.315c0.113,0.109 0.235,0.209 0.364,0.3c0.917,0.637 1.92,1.095 2.976,1.45c0.878,0.291 1.791,0.466 2.715,0.519c0.157,0.008 0.315,0.004 0.472,-0.011c0.145,-0.012 0.289,-0.033 0.433,-0.06c0.143,-0.034 0.284,-0.075 0.422,-0.123c0.27,-0.101 0.516,-0.258 0.722,-0.46c0.194,-0.195 0.344,-0.43 0.439,-0.689c0.153,-0.382 0.254,-0.868 0.321,-1.589c0.006,-0.103 0.02,-0.226 0.03,-0.339c0.053,-0.598 0.077,-1.301 0.115,-2.128c0.065,-1.271 0.116,-2.536 0.156,-3.806c0,0 0.086,-2.255 0.086,-2.256c0.019,-0.52 0.003,-1.096 -0.141,-1.614c-0.063,-0.248 -0.166,-0.484 -0.303,-0.7Z" style="fill:#ff1a1a;fill-rule:nonzero;"/><path d="M295.867,31.814c-0.277,-0.304 -0.67,-0.607 -1.289,-0.982c-0.089,-0.05 -0.194,-0.116 -0.291,-0.174c-0.516,-0.311 -1.137,-0.637 -1.863,-1.031c-1.115,-0.612 -2.23,-1.209 -3.356,-1.801l-1.99,-1.055c-0.104,-0.03 -0.208,-0.105 -0.306,-0.152c-0.382,-0.182 -0.787,-0.353 -1.208,-0.431c-0.145,-0.028 -0.292,-0.043 -0.439,-0.046c-0.096,-0.001 -0.191,0.005 -0.285,0.017c-0.398,0.062 -0.766,0.248 -1.052,0.531c-0.287,0.283 -0.476,0.65 -0.542,1.047c-0.031,0.253 -0.022,0.509 0.027,0.759c0.097,0.529 0.334,1.053 0.578,1.512l1.063,1.991c0.591,1.124 1.19,2.24 1.803,3.354c0.396,0.726 0.725,1.347 1.033,1.862c0.059,0.097 0.125,0.202 0.175,0.291c0.376,0.619 0.677,1.009 0.983,1.289c0.198,0.191 0.436,0.337 0.696,0.426c0.274,0.091 0.563,0.123 0.85,0.095c0.146,-0.017 0.291,-0.042 0.434,-0.075c0.141,-0.038 0.28,-0.083 0.416,-0.136c0.147,-0.055 0.29,-0.121 0.428,-0.197c0.808,-0.453 1.552,-1.011 2.215,-1.658c0.794,-0.782 1.496,-1.634 2.042,-2.61c0.076,-0.138 0.142,-0.281 0.197,-0.429c0.051,-0.136 0.096,-0.275 0.133,-0.416c0.033,-0.144 0.057,-0.289 0.075,-0.435c0.027,-0.286 -0.007,-0.575 -0.098,-0.848c-0.09,-0.261 -0.236,-0.5 -0.429,-0.698Z" style="fill:#ff1a1a;fill-rule:nonzero;"/><path d="M227.356,12.44c-0,-1.641 1.337,-2.982 2.95,-2.982c1.591,0 2.881,1.341 2.951,3.005l-0,23.276c-0,1.641 -1.337,2.982 -2.951,2.982c-1.66,-0 -2.95,-1.341 -2.95,-2.982l-0,-23.299Zm-2.744,14.377c-0.023,0.462 -0.138,1.317 -0.738,1.942c-0.645,0.67 -1.521,0.832 -2.028,0.832c-2.109,0.011 -4.218,0.017 -6.327,0.023c-2.11,0.005 -4.219,0.011 -6.328,0.023c0.184,0.578 0.553,1.456 1.383,2.265c0.507,0.485 0.991,0.763 1.199,0.878c0.253,0.162 1.129,0.624 2.213,0.624c1.152,0 2.166,-0.369 3.158,-0.878l0.082,-0.043c0.689,-0.357 1.4,-0.725 2.154,-0.858c0.737,-0.116 1.521,0.023 2.097,0.531c0.692,0.601 0.968,1.48 0.715,2.381c-0.3,1.017 -1.153,1.895 -2.052,2.427c-0.507,0.3 -1.06,0.555 -1.613,0.763c-0.715,0.254 -1.453,0.439 -2.19,0.555c-0.738,0.115 -1.499,0.161 -2.259,0.138c-0.369,0 -0.761,0 -1.153,-0.046c-0.415,-0.046 -0.83,-0.139 -1.221,-0.231c-0.646,-0.139 -1.245,-0.347 -1.845,-0.624c-0.576,-0.255 -1.152,-0.578 -1.682,-0.948c-0.53,-0.37 -1.015,-0.809 -1.476,-1.271c-0.438,-0.463 -0.852,-0.971 -1.221,-1.526c-1.245,-1.895 -1.821,-4.23 -1.706,-6.495c0.092,-2.219 0.83,-4.438 2.167,-6.241c0.145,-0.225 0.312,-0.417 0.47,-0.599c0.069,-0.079 0.136,-0.156 0.198,-0.233c1.651,-2.018 3.857,-2.657 4.767,-2.92l0.051,-0.015c2.605,-0.74 4.771,-0.254 5.647,-0c0.438,0.115 2.905,0.878 4.818,2.935c0.092,0.093 0.346,0.393 0.669,0.832c1.212,1.651 1.63,3.189 1.771,3.71l0.004,0.012c0.138,0.508 0.276,1.202 0.276,2.057Zm-13.531,-3.814c-1.337,1.087 -1.706,2.473 -1.798,2.912l10.05,0c-0.092,-0.416 -0.484,-1.825 -1.821,-2.912c-1.36,-1.086 -2.789,-1.156 -3.227,-1.156c-0.438,0 -1.867,0.07 -3.204,1.156Zm38.219,-6.125c-2.628,-0 -5.025,1.179 -6.731,3.097l-0,-0.069c-0.069,-1.549 -1.36,-2.797 -2.928,-2.797c-1.636,0 -2.95,1.318 -2.95,2.959l-0,22.212c-0,1.641 1.314,2.959 2.95,2.959c1.637,-0 2.951,-1.318 2.951,-2.959l-0,-6.934c1.706,1.895 4.08,3.097 6.731,3.097c5.278,0 9.566,-4.784 9.566,-10.748c-0.023,-5.963 -4.311,-10.817 -9.589,-10.817Zm-1.291,16.735c-2.997,-0 -5.44,-2.612 -5.44,-5.871c-0,-3.283 2.42,-5.895 5.44,-5.895c2.996,0 5.44,2.612 5.44,5.895c-0.023,3.259 -2.444,5.871 -5.44,5.871Zm-48.661,-4.369l-0.968,2.126c-0.438,0.925 -0.876,1.873 -1.291,2.82c-0.132,0.291 -0.265,0.588 -0.401,0.889c-1.842,4.099 -4.029,8.964 -8.796,9.998c-2.305,0.508 -5.786,-0.185 -7.077,-2.358c-1.291,-2.196 0.623,-4.715 3.089,-4.137c0.389,0.087 0.772,0.277 1.157,0.47c0.643,0.32 1.295,0.645 2.001,0.501c0.669,-0.116 1.084,-0.601 1.614,-1.225c0.737,-0.856 1.06,-1.757 1.198,-2.289c-0.011,-0.023 -0.023,-0.052 -0.034,-0.081c-0.012,-0.028 -0.023,-0.057 -0.035,-0.08c-0.6,-1.12 -1.124,-2.121 -1.562,-2.957c-0.285,-0.545 -0.534,-1.02 -0.743,-1.412c-0.429,-0.814 -0.753,-1.429 -1.006,-1.907c-0.736,-1.397 -0.858,-1.628 -1.184,-2.23c-0.714,-1.364 -1.475,-2.682 -2.259,-3.999c-0.853,-1.433 -1.729,-3.028 -1.014,-4.715c0.576,-1.364 2.052,-2.058 3.458,-1.618c1.483,0.45 2.14,1.862 2.755,3.182c0.111,0.239 0.221,0.474 0.333,0.701c0.992,1.965 1.96,3.929 2.928,5.894c0.085,0.195 0.215,0.462 0.374,0.785c0.141,0.289 0.305,0.624 0.479,0.995c0.091,0.192 0.177,0.372 0.256,0.533c0.1,0.208 0.186,0.387 0.251,0.53c0.449,-1.121 0.905,-2.236 1.36,-3.352c0.455,-1.115 0.911,-2.23 1.36,-3.351c0.013,-0.063 0.12,-0.302 0.281,-0.662c0.137,-0.305 0.313,-0.696 0.503,-1.141c0.064,-0.152 0.129,-0.31 0.195,-0.471c0.599,-1.458 1.318,-3.211 2.917,-3.69c1.152,-0.346 2.443,0.116 3.112,1.087c0.345,0.485 0.484,1.04 0.507,1.595c0.018,1.226 -0.574,2.543 -1.083,3.673c-0.124,0.275 -0.243,0.539 -0.347,0.788c-0.004,0.009 -0.024,0.054 -0.061,0.136c-0.14,0.316 -0.523,1.175 -1.183,2.591c-0.238,0.508 -0.467,1.015 -0.698,1.529c-0.127,0.282 -0.255,0.565 -0.386,0.852Z"/><path d="M261.125,36.499l0.214,-0c0.106,-0 0.19,-0.027 0.253,-0.082c0.065,-0.055 0.097,-0.125 0.097,-0.209c0,-0.099 -0.028,-0.17 -0.085,-0.212c-0.056,-0.043 -0.146,-0.065 -0.269,-0.065l-0.21,-0l0,0.568Zm0.859,-0.299c0,0.105 -0.028,0.199 -0.085,0.281c-0.055,0.08 -0.134,0.14 -0.235,0.18l0.47,0.781l-0.332,0l-0.409,-0.7l-0.268,-0l0,0.7l-0.292,0l-0,-1.762l0.516,-0c0.219,-0 0.379,0.042 0.481,0.128c0.103,0.086 0.154,0.216 0.154,0.392Zm-2.091,0.36c-0,-0.264 0.066,-0.511 0.198,-0.742c0.132,-0.231 0.313,-0.413 0.544,-0.546c0.231,-0.133 0.479,-0.2 0.746,-0.2c0.263,0 0.511,0.066 0.742,0.198c0.23,0.132 0.412,0.313 0.545,0.544c0.134,0.231 0.2,0.479 0.2,0.746c0,0.26 -0.064,0.504 -0.192,0.732c-0.127,0.228 -0.307,0.411 -0.538,0.548c-0.23,0.137 -0.483,0.206 -0.757,0.206c-0.273,-0 -0.525,-0.068 -0.756,-0.204c-0.231,-0.137 -0.411,-0.32 -0.54,-0.548c-0.128,-0.228 -0.192,-0.473 -0.192,-0.734Zm0.208,-0c-0,0.228 0.057,0.442 0.172,0.641c0.115,0.198 0.271,0.354 0.469,0.469c0.199,0.113 0.412,0.17 0.639,0.17c0.229,-0 0.442,-0.057 0.639,-0.172c0.196,-0.115 0.352,-0.27 0.467,-0.465c0.116,-0.197 0.174,-0.411 0.174,-0.643c-0,-0.23 -0.058,-0.443 -0.172,-0.639c-0.115,-0.197 -0.271,-0.352 -0.467,-0.467c-0.196,-0.116 -0.409,-0.174 -0.641,-0.174c-0.23,-0 -0.443,0.057 -0.639,0.172c-0.197,0.115 -0.353,0.27 -0.469,0.467c-0.115,0.195 -0.172,0.409 -0.172,0.641Z" style="fill-rule:nonzero;"/><g transform="matrix(16,0,0,16,154.241,25.8996)"><path d="M0.288,0.012c-0.05,0 -0.094,-0.011 -0.133,-0.033c-0.039,-0.021 -0.071,-0.052 -0.093,-0.091c-0.023,-0.039 -0.035,-0.084 -0.035,-0.136c0,-0.052 0.012,-0.098 0.035,-0.137c0.023,-0.038 0.054,-0.069 0.094,-0.09c0.039,-0.022 0.084,-0.033 0.132,-0.033c0.05,0 0.094,0.011 0.133,0.033c0.04,0.021 0.071,0.052 0.093,0.09c0.023,0.039 0.035,0.085 0.035,0.137c-0,0.052 -0.012,0.097 -0.035,0.136c-0.023,0.039 -0.054,0.07 -0.093,0.091c-0.04,0.022 -0.084,0.033 -0.133,0.033Zm-0.001,-0.095c0.027,0 0.052,-0.006 0.075,-0.018c0.022,-0.013 0.04,-0.031 0.053,-0.056c0.014,-0.024 0.02,-0.054 0.02,-0.091c0,-0.037 -0.006,-0.067 -0.02,-0.092c-0.013,-0.024 -0.031,-0.042 -0.053,-0.055c-0.022,-0.012 -0.047,-0.018 -0.073,-0.018c-0.027,-0 -0.051,0.006 -0.074,0.018c-0.022,0.013 -0.04,0.031 -0.054,0.055c-0.014,0.025 -0.02,0.055 -0.02,0.092c-0,0.036 0.006,0.067 0.02,0.091c0.013,0.025 0.031,0.043 0.053,0.056c0.023,0.012 0.047,0.018 0.074,0.018Z" style="fill:#3d696d;fill-rule:nonzero;"/></g><g transform="matrix(16,0,0,16,163.457,25.8996)"><path d="M0.05,-0l0,-0.496l0.11,0l0,0.079c0.016,-0.028 0.039,-0.051 0.068,-0.067c0.028,-0.016 0.061,-0.024 0.098,-0.024c0.061,0 0.108,0.019 0.142,0.056c0.034,0.038 0.051,0.094 0.051,0.168l0,0.284l-0.11,-0l0,-0.273c0,-0.047 -0.009,-0.082 -0.029,-0.106c-0.019,-0.024 -0.048,-0.035 -0.086,-0.035c-0.039,-0 -0.071,0.013 -0.096,0.041c-0.025,0.027 -0.038,0.066 -0.038,0.117l0,0.256l-0.11,0Z" style="fill:#3d696d;fill-rule:nonzero;"/></g><g transform="matrix(16,0,0,16,172.561,25.8996)"></g></g></svg>