<?xml version="1.0" encoding="UTF-8" standalone="no"?><!DOCTYPE svg PUBLIC "-//W3C//DTD SVG 1.1//EN" "http://www.w3.org/Graphics/SVG/1.1/DTD/svg11.dtd"><svg width="100%" height="100%" viewBox="0 0 156 62" version="1.1" xmlns="http://www.w3.org/2000/svg" xmlns:xlink="http://www.w3.org/1999/xlink" xml:space="preserve" xmlns:serif="http://www.serif.com/" style="fill-rule:evenodd;clip-rule:evenodd;stroke-linejoin:round;stroke-miterlimit:2;"><rect id="Artboard1" x="0" y="0" width="155.916" height="61.043" style="fill:none;"/><g><path d="M124.894,35.354l2.489,-0.575c0.052,-0.012 0.139,-0.032 0.244,-0.066c0.687,-0.185 1.276,-0.629 1.642,-1.239c0.366,-0.61 0.482,-1.339 0.322,-2.032c-0.003,-0.015 -0.007,-0.03 -0.01,-0.045c-0.082,-0.332 -0.225,-0.646 -0.422,-0.926c-0.279,-0.353 -0.624,-0.65 -1.017,-0.871c-0.461,-0.264 -0.944,-0.487 -1.444,-0.669l-2.729,-0.996c-1.532,-0.57 -3.063,-1.125 -4.609,-1.666c-1.002,-0.357 -1.852,-0.67 -2.59,-0.898c-0.139,-0.043 -0.293,-0.086 -0.418,-0.129c-0.892,-0.274 -1.519,-0.387 -2.049,-0.391c-0.355,-0.013 -0.708,0.052 -1.035,0.189c-0.341,0.147 -0.647,0.364 -0.898,0.637c-0.125,0.143 -0.243,0.291 -0.352,0.446c-0.103,0.157 -0.198,0.32 -0.283,0.487c-0.094,0.179 -0.175,0.366 -0.242,0.557c-0.506,1.497 -0.758,3.069 -0.746,4.649c0.009,1.429 0.047,3.263 0.833,4.506c0.189,0.319 0.443,0.595 0.745,0.81c0.56,0.386 1.125,0.437 1.713,0.479c0.879,0.063 1.731,-0.153 2.58,-0.349l8.269,-1.91l0.007,0.002Z" style="fill:#ff1a1a;fill-rule:nonzero;"/><path d="M152.663,22.139c-0.679,-1.426 -1.593,-2.728 -2.703,-3.852c-0.143,-0.143 -0.297,-0.275 -0.46,-0.395c-0.15,-0.113 -0.306,-0.218 -0.468,-0.314c-0.165,-0.091 -0.336,-0.173 -0.511,-0.246c-0.345,-0.135 -0.715,-0.196 -1.085,-0.179c-0.355,0.02 -0.7,0.117 -1.013,0.284c-0.475,0.236 -0.989,0.616 -1.672,1.251c-0.094,0.093 -0.213,0.199 -0.319,0.299c-0.564,0.53 -1.191,1.183 -1.937,1.944c-1.153,1.165 -2.288,2.336 -3.416,3.52l-2.018,2.093c-0.37,0.383 -0.707,0.796 -1.007,1.235c-0.255,0.372 -0.436,0.789 -0.532,1.23c-0.055,0.337 -0.047,0.683 0.024,1.017c0.004,0.015 0.007,0.03 0.011,0.045c0.159,0.693 0.581,1.298 1.177,1.685c0.596,0.388 1.319,0.529 2.017,0.394c0.111,-0.016 0.197,-0.035 0.249,-0.048l10.762,-2.486c0.848,-0.196 1.709,-0.376 2.471,-0.818c0.511,-0.297 0.997,-0.59 1.33,-1.183c0.179,-0.326 0.286,-0.685 0.317,-1.055c0.165,-1.467 -0.601,-3.132 -1.217,-4.421Z" style="fill:#ff1a1a;fill-rule:nonzero;"/><path d="M133.401,26.665c0.78,-0.98 0.778,-2.44 0.848,-3.634c0.235,-3.989 0.482,-7.978 0.678,-11.97c0.075,-1.511 0.237,-3.002 0.148,-4.526c-0.075,-1.256 -0.084,-2.699 -0.877,-3.73c-1.4,-1.819 -4.387,-1.669 -6.424,-1.387c-0.624,0.087 -1.25,0.203 -1.87,0.352c-0.62,0.149 -1.234,0.312 -1.834,0.504c-1.956,0.64 -4.704,1.816 -5.17,4.069c-0.262,1.273 0.36,2.576 0.842,3.738c0.585,1.409 1.383,2.678 2.111,4.004c1.924,3.502 3.884,6.981 5.839,10.464c0.583,1.04 1.22,2.357 2.349,2.895c0.074,0.033 0.151,0.062 0.228,0.087c0.506,0.191 1.058,0.228 1.586,0.106c0.032,-0.008 0.063,-0.015 0.094,-0.022c0.487,-0.132 0.928,-0.397 1.274,-0.765c0.063,-0.059 0.122,-0.121 0.178,-0.185Z" style="fill:#ff1a1a;fill-rule:nonzero;"/><path d="M132.468,37.344c-0.305,-0.429 -0.737,-0.75 -1.235,-0.917c-0.497,-0.168 -1.036,-0.174 -1.537,-0.017c-0.118,0.039 -0.233,0.086 -0.344,0.142c-0.171,0.088 -0.335,0.19 -0.489,0.305c-0.448,0.332 -0.826,0.764 -1.17,1.197c-0.087,0.111 -0.167,0.258 -0.271,0.352l-1.731,2.381c-0.981,1.334 -1.948,2.672 -2.908,4.03c-0.626,0.877 -1.168,1.618 -1.595,2.273c-0.081,0.124 -0.165,0.262 -0.243,0.371c-0.512,0.794 -0.803,1.372 -0.952,1.888c-0.112,0.343 -0.147,0.706 -0.103,1.063c0.047,0.373 0.173,0.731 0.368,1.052c0.104,0.161 0.215,0.317 0.335,0.467c0.124,0.144 0.256,0.281 0.395,0.41c0.148,0.142 0.307,0.272 0.475,0.39c1.194,0.832 2.502,1.429 3.878,1.891c1.145,0.38 2.335,0.607 3.54,0.676c0.205,0.01 0.41,0.006 0.615,-0.013c0.189,-0.017 0.377,-0.043 0.564,-0.079c0.186,-0.044 0.37,-0.097 0.551,-0.161c0.352,-0.131 0.672,-0.335 0.94,-0.598c0.254,-0.254 0.449,-0.561 0.573,-0.898c0.2,-0.499 0.331,-1.132 0.418,-2.073c0.007,-0.133 0.027,-0.294 0.04,-0.441c0.068,-0.78 0.099,-1.696 0.15,-2.774c0.084,-1.656 0.151,-3.306 0.203,-4.96c0,-0 0.112,-2.94 0.111,-2.942c0.026,-0.677 0.005,-1.428 -0.183,-2.103c-0.083,-0.323 -0.216,-0.631 -0.395,-0.912Z" style="fill:#ff1a1a;fill-rule:nonzero;"/><path d="M152.007,41.947c-0.361,-0.397 -0.873,-0.792 -1.681,-1.28c-0.116,-0.065 -0.253,-0.152 -0.379,-0.227c-0.672,-0.405 -1.482,-0.83 -2.428,-1.344c-1.453,-0.798 -2.907,-1.575 -4.375,-2.347l-2.594,-1.375c-0.134,-0.039 -0.271,-0.137 -0.398,-0.198c-0.498,-0.238 -1.026,-0.461 -1.574,-0.563c-0.189,-0.036 -0.381,-0.056 -0.574,-0.059c-0.124,-0.001 -0.248,0.006 -0.371,0.023c-0.518,0.08 -0.998,0.322 -1.371,0.691c-0.374,0.37 -0.621,0.847 -0.707,1.365c-0.039,0.33 -0.027,0.663 0.036,0.989c0.127,0.69 0.435,1.373 0.754,1.971l1.385,2.596c0.77,1.464 1.55,2.92 2.35,4.371c0.516,0.946 0.945,1.756 1.347,2.428c0.076,0.126 0.163,0.262 0.228,0.379c0.489,0.807 0.883,1.315 1.281,1.679c0.259,0.25 0.568,0.44 0.907,0.557c0.357,0.118 0.734,0.16 1.108,0.123c0.19,-0.023 0.379,-0.056 0.566,-0.098c0.184,-0.05 0.365,-0.109 0.542,-0.177c0.192,-0.072 0.379,-0.158 0.558,-0.257c1.053,-0.591 2.024,-1.317 2.887,-2.162c1.035,-1.018 1.95,-2.129 2.662,-3.401c0.099,-0.18 0.185,-0.367 0.257,-0.559c0.067,-0.178 0.125,-0.359 0.173,-0.543c0.043,-0.187 0.075,-0.376 0.097,-0.566c0.036,-0.374 -0.008,-0.751 -0.127,-1.106c-0.118,-0.341 -0.308,-0.652 -0.559,-0.91Z" style="fill:#ff1a1a;fill-rule:nonzero;"/><path d="M62.705,16.694c-0,-2.139 1.742,-3.887 3.846,-3.887c2.073,0 3.755,1.748 3.845,3.917l0,30.339c0,2.139 -1.742,3.887 -3.845,3.887c-2.164,-0 -3.846,-1.748 -3.846,-3.887l-0,-30.369Zm-3.576,18.74c-0.03,0.602 -0.181,1.717 -0.962,2.53c-0.841,0.874 -1.983,1.085 -2.644,1.085c-2.749,0.015 -5.498,0.023 -8.247,0.03c-2.75,0.008 -5.499,0.015 -8.248,0.03c0.24,0.754 0.721,1.898 1.802,2.953c0.661,0.633 1.292,0.994 1.563,1.145c0.33,0.211 1.472,0.813 2.884,0.813c1.503,0 2.825,-0.482 4.117,-1.145l0.108,-0.056c0.897,-0.465 1.824,-0.945 2.806,-1.119c0.962,-0.15 1.983,0.03 2.734,0.693c0.902,0.784 1.262,1.928 0.932,3.103c-0.391,1.326 -1.503,2.471 -2.674,3.164c-0.661,0.392 -1.383,0.723 -2.104,0.994c-0.931,0.332 -1.893,0.573 -2.854,0.723c-0.962,0.151 -1.953,0.211 -2.945,0.181c-0.48,0 -0.991,0 -1.502,-0.06c-0.541,-0.061 -1.081,-0.181 -1.592,-0.302c-0.842,-0.18 -1.623,-0.451 -2.404,-0.813c-0.751,-0.331 -1.502,-0.753 -2.193,-1.235c-0.691,-0.482 -1.322,-1.055 -1.923,-1.657c-0.571,-0.603 -1.112,-1.266 -1.593,-1.989c-1.622,-2.47 -2.374,-5.513 -2.223,-8.466c0.12,-2.892 1.081,-5.784 2.824,-8.134c0.189,-0.295 0.407,-0.545 0.613,-0.782c0.09,-0.103 0.177,-0.203 0.258,-0.303c2.153,-2.631 5.028,-3.464 6.214,-3.807l0.066,-0.019c3.395,-0.964 6.22,-0.332 7.361,-0c0.571,0.15 3.786,1.145 6.28,3.826c0.12,0.12 0.451,0.512 0.871,1.085c1.58,2.152 2.125,4.155 2.31,4.834l0.004,0.016c0.18,0.663 0.361,1.567 0.361,2.682Zm-17.638,-4.971c-1.742,1.416 -2.223,3.223 -2.343,3.796l13.1,-0c-0.12,-0.543 -0.631,-2.38 -2.374,-3.796c-1.772,-1.417 -3.635,-1.507 -4.206,-1.507c-0.571,0 -2.434,0.09 -4.177,1.507Zm49.817,-7.984c-3.425,-0 -6.55,1.536 -8.774,4.037l0,-0.091c-0.09,-2.018 -1.772,-3.645 -3.816,-3.645c-2.133,-0 -3.845,1.717 -3.845,3.856l-0,28.953c-0,2.14 1.712,3.857 3.845,3.857c2.134,-0 3.846,-1.717 3.846,-3.857l0,-9.038c2.224,2.471 5.319,4.037 8.774,4.037c6.88,0 12.469,-6.236 12.469,-14.009c-0.03,-7.774 -5.618,-14.1 -12.499,-14.1Zm-1.683,21.812c-3.906,0 -7.091,-3.404 -7.091,-7.652c0,-4.278 3.155,-7.683 7.091,-7.683c3.906,0 7.091,3.405 7.091,7.683c-0.03,4.248 -3.185,7.652 -7.091,7.652Zm-63.427,-5.694l-1.262,2.772c-0.571,1.205 -1.142,2.44 -1.682,3.676c-0.173,0.379 -0.347,0.765 -0.523,1.158c-2.402,5.343 -5.252,11.685 -11.466,13.032c-3.005,0.663 -7.541,-0.241 -9.224,-3.073c-1.683,-2.862 0.811,-6.146 4.026,-5.393c0.507,0.113 1.006,0.362 1.509,0.612c0.838,0.418 1.687,0.842 2.607,0.653c0.872,-0.15 1.413,-0.783 2.104,-1.597c0.961,-1.114 1.382,-2.289 1.562,-2.982c-0.015,-0.03 -0.03,-0.068 -0.045,-0.106c-0.015,-0.037 -0.03,-0.075 -0.045,-0.105c-0.782,-1.459 -1.465,-2.764 -2.036,-3.854c-0.372,-0.71 -0.696,-1.329 -0.969,-1.84c-0.559,-1.061 -0.982,-1.863 -1.311,-2.486c-0.959,-1.821 -1.118,-2.122 -1.543,-2.907c-0.932,-1.778 -1.923,-3.495 -2.945,-5.213c-1.111,-1.867 -2.253,-3.946 -1.322,-6.146c0.752,-1.777 2.674,-2.681 4.507,-2.109c1.934,0.587 2.791,2.427 3.591,4.148c0.145,0.311 0.288,0.619 0.435,0.914c1.292,2.561 2.554,5.122 3.816,7.683c0.111,0.254 0.281,0.601 0.488,1.023c0.184,0.377 0.397,0.813 0.624,1.296c0.119,0.252 0.231,0.485 0.333,0.696c0.131,0.271 0.244,0.504 0.328,0.69c0.586,-1.461 1.179,-2.914 1.773,-4.368c0.593,-1.454 1.187,-2.908 1.772,-4.369c0.017,-0.081 0.157,-0.393 0.367,-0.863c0.178,-0.397 0.407,-0.907 0.655,-1.487c0.084,-0.198 0.168,-0.403 0.255,-0.613c0.78,-1.901 1.718,-4.186 3.801,-4.81c1.503,-0.452 3.185,0.151 4.057,1.416c0.45,0.633 0.631,1.356 0.661,2.079c0.024,1.599 -0.749,3.315 -1.412,4.787c-0.161,0.359 -0.316,0.703 -0.451,1.028c-0.006,0.012 -0.033,0.071 -0.08,0.177c-0.183,0.412 -0.682,1.533 -1.543,3.378c-0.31,0.661 -0.608,1.323 -0.91,1.993c-0.165,0.367 -0.332,0.737 -0.502,1.11Z"/><path d="M106.722,48.053l0.279,0c0.137,0 0.248,-0.035 0.33,-0.105c0.084,-0.073 0.126,-0.164 0.126,-0.274c0,-0.129 -0.037,-0.221 -0.111,-0.276c-0.073,-0.056 -0.19,-0.085 -0.35,-0.085l-0.274,0l0,0.74Zm1.12,-0.389c-0,0.137 -0.037,0.26 -0.111,0.366c-0.073,0.105 -0.175,0.183 -0.307,0.235l0.614,1.018l-0.434,0l-0.533,-0.913l-0.349,0l0,0.913l-0.381,0l-0,-2.297l0.673,-0c0.285,-0 0.494,0.056 0.626,0.167c0.135,0.112 0.202,0.282 0.202,0.511Zm-2.726,0.469c-0,-0.344 0.086,-0.666 0.258,-0.967c0.172,-0.301 0.408,-0.538 0.709,-0.711c0.301,-0.174 0.625,-0.261 0.972,-0.261c0.344,0 0.666,0.086 0.967,0.258c0.301,0.172 0.538,0.408 0.712,0.709c0.173,0.301 0.26,0.625 0.26,0.972c0,0.339 -0.083,0.657 -0.25,0.954c-0.167,0.298 -0.4,0.536 -0.701,0.715c-0.301,0.178 -0.63,0.268 -0.988,0.268c-0.356,-0 -0.684,-0.089 -0.985,-0.266c-0.301,-0.179 -0.536,-0.417 -0.704,-0.714c-0.167,-0.297 -0.25,-0.616 -0.25,-0.957Zm0.271,0c-0,0.298 0.075,0.576 0.224,0.836c0.15,0.258 0.353,0.461 0.611,0.611c0.26,0.148 0.537,0.222 0.833,0.222c0.299,-0 0.577,-0.075 0.833,-0.225c0.256,-0.149 0.459,-0.351 0.609,-0.606c0.151,-0.256 0.226,-0.535 0.226,-0.838c0,-0.299 -0.074,-0.577 -0.224,-0.833c-0.149,-0.256 -0.352,-0.459 -0.608,-0.608c-0.255,-0.151 -0.533,-0.227 -0.836,-0.227c-0.299,-0 -0.577,0.075 -0.833,0.224c-0.256,0.15 -0.46,0.353 -0.611,0.609c-0.149,0.254 -0.224,0.533 -0.224,0.835Z" style="fill-rule:nonzero;"/><g id="yelp_logo.svg"></g></g></svg>